<svg width="33" height="32" viewBox="0 0 33 32" fill="none" xmlns="http://www.w3.org/2000/svg">
<path d="M16.4 30.4C16.4 30.4 28.3 30.4 28.3 17.9C28.3 8.69998 21.8 8.29998 18.4 8.69998H14.4C11 8.29998 4.5 8.69998 4.5 17.9C4.5 30.4 16.4 30.4 16.4 30.4Z" stroke="black" stroke-width="1.5" stroke-linecap="round" stroke-linejoin="round"/>
<path d="M16.4 8.79995C16.4 8.79995 15.1 3.99995 12.3 3.19995" stroke="black" stroke-width="1.5" stroke-linecap="round" stroke-linejoin="round"/>
<path d="M22.6 2C22.6 3.29956 22.0838 4.54585 21.1649 5.46478C20.2459 6.38371 18.9996 6.89996 17.7 6.89996C17.7 5.6004 18.2163 4.35411 19.1352 3.43518C20.0541 2.51625 21.3005 2 22.6 2Z" fill="black"/>
</svg>
