<svg width="33" height="32" viewBox="0 0 33 32" fill="none" xmlns="http://www.w3.org/2000/svg">
<path d="M21.7 7.59998C21.6735 10.3397 22.4752 13.0236 24 15.3C25.0502 16.9047 25.6065 18.7822 25.6 20.7C25.3578 23.0643 24.2471 25.2546 22.483 26.8472C20.7188 28.4398 18.4267 29.3215 16.05 29.3215C13.6733 29.3215 11.3812 28.4398 9.61703 26.8472C7.85291 25.2546 6.74225 23.0643 6.5 20.7C6.52895 18.7729 7.11976 16.8961 8.19998 15.3C9.72477 13.0236 10.5265 10.3397 10.5 7.59998C10.5 6.11476 11.09 4.6904 12.1402 3.6402C13.1904 2.58999 14.6148 2 16.1 2C17.5852 2 19.0096 2.58999 20.0598 3.6402C21.11 4.6904 21.7 6.11476 21.7 7.59998Z" stroke="black" stroke-width="1.5" stroke-miterlimit="10"/>
<path d="M16.1 25.1C18.2539 25.1 20 23.354 20 21.2001C20 19.0462 18.2539 17.3 16.1 17.3C13.9461 17.3 12.2 19.0462 12.2 21.2001C12.2 23.354 13.9461 25.1 16.1 25.1Z" stroke="black" stroke-width="1.5" stroke-miterlimit="10"/>
</svg>
