<svg width="33" height="32" viewBox="0 0 33 32" fill="none" xmlns="http://www.w3.org/2000/svg">
<path d="M29.9567 24.479C28.2257 26.0466 26.1781 27.224 23.9524 27.9314C21.7268 28.6387 19.3752 28.8596 17.0567 28.579C9.55674 27.779 1.75674 21.879 2.55674 14.379C2.85674 11.079 2.95671 12.279 3.45671 4.67901C3.45671 4.27901 4.55674 4.07902 4.55674 4.07902C4.55674 4.07902 6.35673 3.67901 6.35673 4.67901C6.35567 6.48379 6.65999 8.27575 7.25676 9.97901C8.36296 13.2404 10.4619 16.0739 13.2594 18.0824C16.057 20.0909 19.4129 21.1737 22.8567 21.179C24.5168 21.2062 26.1707 20.97 27.7568 20.479C28.2778 20.2711 28.8569 20.2609 29.385 20.4502C29.9131 20.6395 30.3538 21.0153 30.6242 21.5069C30.8946 21.9985 30.9759 22.5719 30.853 23.1193C30.7301 23.6667 30.4113 24.1502 29.9567 24.479Z" stroke="black" stroke-width="1.5" stroke-linecap="round" stroke-linejoin="round"/>
<path d="M7.05676 8.979C8.95619 11.0653 11.3646 12.6229 14.0465 13.4993C16.7284 14.3758 19.5918 14.541 22.3568 13.979C24.0046 13.6686 25.5916 13.0946 27.0568 12.279C27.5168 12.0472 28.0413 11.9765 28.5463 12.0783C29.0512 12.1801 29.5074 12.4485 29.8417 12.8404C30.176 13.2323 30.369 13.7251 30.3899 14.2398C30.4108 14.7545 30.2582 15.2613 29.9567 15.679L28.4567 17.379" stroke="black" stroke-width="1.5" stroke-linecap="round" stroke-linejoin="round"/>
</svg>
