<svg width="33" height="32" viewBox="0 0 33 32" fill="none" xmlns="http://www.w3.org/2000/svg">
<path d="M30.2004 12.3567C30.2004 13.8419 29.6104 15.2663 28.5602 16.3165C27.51 17.3667 26.0855 17.9567 24.6003 17.9567C23.2361 17.9651 21.9174 17.4661 20.9004 16.5567C20.2681 17.7406 19.3174 18.7242 18.1558 19.3965C16.9941 20.0688 15.6677 20.403 14.3262 20.3614C12.9846 20.3198 11.6815 19.904 10.5637 19.1611C9.44591 18.4181 8.55807 17.3775 8.00036 16.1567C7.45031 16.5603 6.78244 16.7712 6.10034 16.7567C5.62758 16.7567 5.15945 16.6635 4.72268 16.4826C4.28591 16.3017 3.88906 16.0365 3.55477 15.7022C3.22048 15.368 2.9553 14.9711 2.77438 14.5343C2.59346 14.0975 2.50036 13.6294 2.50036 13.1567C2.4902 12.4486 2.69503 11.7542 3.08782 11.165C3.48061 10.5758 4.04286 10.1196 4.70034 9.85666C4.53018 9.30702 4.46241 8.7308 4.50036 8.15667C4.50918 6.89453 4.90298 5.66514 5.62918 4.63281C6.35537 3.60048 7.37936 2.81437 8.56426 2.37954C9.74917 1.94472 11.0385 1.88188 12.2601 2.19944C13.4817 2.517 14.5772 3.19983 15.4004 4.15667C16.5628 3.31151 17.9631 2.8564 19.4004 2.85666C20.6588 2.85596 21.8877 3.23826 22.9237 3.95274C23.9597 4.66723 24.7538 5.68007 25.2004 6.85666C26.5707 6.98175 27.8444 7.61598 28.7701 8.63419C29.6957 9.6524 30.2061 10.9806 30.2004 12.3567Z" stroke="black" stroke-width="1.5" stroke-linecap="round" stroke-linejoin="round"/>
<path d="M24.6003 17.9565C24.6003 17.9565 19.7003 18.8565 19.7003 29.9565H14.6003C14.6003 29.9565 14.9004 22.2565 9.90036 18.5565" stroke="black" stroke-width="1.5" stroke-linecap="round" stroke-linejoin="round"/>
</svg>
