<svg width="33" height="32" viewBox="0 0 33 32" fill="none" xmlns="http://www.w3.org/2000/svg">
<path d="M19.7595 12.546C19.7595 13.3638 19.5842 14.1363 19.2597 14.8373C18.2406 14.9022 17.2865 15.2462 16.4946 15.8044C15.7806 14.2206 14.1838 13.1172 12.3274 13.1172C11.9899 13.1172 11.6589 13.1561 11.3408 13.2275C10.867 12.4356 10.1595 11.806 9.32215 11.4166C9.17286 11.3452 9.01708 11.2868 8.8613 11.2348C8.40694 11.0791 7.92012 11.0012 7.40734 11.0012C5.512 11.0012 3.88279 12.15 3.18826 13.7922C3.90226 9.52124 7.06332 5.09445 10.7177 3.08228C11.8601 2.45266 13.2297 2.10864 14.4759 2.01128C16.7218 1.84252 18.708 3.58857 18.7275 5.8409C18.7275 5.85389 18.7275 5.87336 18.7275 5.88634C18.7275 6.83401 18.4354 7.71028 17.9356 8.43077C19.0585 9.44335 19.766 10.9103 19.766 12.5395L19.7595 12.546Z" stroke="black" stroke-width="1.5" stroke-linecap="round" stroke-linejoin="round"/>
<path d="M18.1692 3.73131C18.7729 2.87452 19.7919 2.40068 20.8305 2.5305C27.3798 3.37431 30.8199 9.0149 30.8199 16.09" stroke="black" stroke-width="1.5" stroke-linecap="round" stroke-linejoin="round"/>
<path d="M14.1124 29.7209C15.0146 29.9092 15.9493 30 16.91 30C23.9396 30 29.7554 24.7749 30.6901 18.0049" stroke="black" stroke-width="1.5" stroke-linecap="round" stroke-linejoin="round"/>
<path d="M19.6427 24.1907V19.9651" stroke="black" stroke-width="1.5" stroke-linecap="round" stroke-linejoin="round"/>
<path d="M19.2662 14.8373C19.3895 14.8243 19.5128 14.8178 19.6426 14.8178H20.1295C20.9278 12.7472 22.9335 11.2803 25.2897 11.2803C28.2496 11.2803 30.6642 13.604 30.8135 16.5184V16.5444C30.794 17.0377 30.755 17.518 30.6901 17.9983" stroke="black" stroke-width="1.5" stroke-linecap="round" stroke-linejoin="round"/>
<path d="M30.82 16.8039C30.82 17.2193 30.7745 17.6218 30.6902 18.0047C30.7551 17.5244 30.8005 17.0376 30.8135 16.5508C30.82 16.6352 30.82 16.7195 30.82 16.8104V16.8039Z" stroke="black" stroke-width="1.5" stroke-linecap="round" stroke-linejoin="round"/>
<path d="M14.1124 23.321L7.75779 16.9729" stroke="black" stroke-width="1.5" stroke-linecap="round" stroke-linejoin="round"/>
<path d="M16.5011 15.7979C15.6832 16.3626 15.0211 17.1415 14.6057 18.0632C14.2877 18.7578 14.1124 19.5302 14.1124 20.348V29.7209C13.9047 29.6819 13.7035 29.6365 13.5023 29.5781C7.7059 28.1176 3.35051 23.0223 3.01947 16.8559C3.00649 16.5963 3 16.3496 3 16.09C3 15.3046 3.06491 14.5452 3.18824 13.7922" stroke="black" stroke-width="1.5" stroke-linecap="round" stroke-linejoin="round"/>
<path d="M13.7359 7.00269L9.32862 11.41" stroke="black" stroke-width="1.5" stroke-linecap="round" stroke-linejoin="round"/>
<path d="M22.7712 8.65796L25.3416 11.2284" stroke="black" stroke-width="1.5" stroke-linecap="round" stroke-linejoin="round"/>
<path d="M14.1124 29.7209L26.3023 17.531" stroke="black" stroke-width="1.5" stroke-linecap="round" stroke-linejoin="round"/>
</svg>
