<svg width="33" height="32" viewBox="0 0 33 32" fill="none" xmlns="http://www.w3.org/2000/svg">
<path d="M4.42338 27.314C3.81144 26.6192 3.48223 25.7202 3.50074 24.7946C3.51925 23.8689 3.88414 22.9838 4.52337 22.314L17.8234 6.914C18.271 6.33256 18.8324 5.84845 19.4734 5.49122C20.1143 5.134 20.8213 4.91115 21.5513 4.83629C22.2812 4.76142 23.0188 4.8361 23.7189 5.05578C24.419 5.27546 25.067 5.63553 25.6234 6.114C26.1018 6.67032 26.4619 7.31832 26.6816 8.01845C26.9013 8.71857 26.976 9.45613 26.9011 10.1861C26.8262 10.916 26.6034 11.6231 26.2461 12.264C25.8889 12.905 25.4048 13.4664 24.8234 13.914L9.42338 27.214C8.7536 27.8532 7.86851 28.2181 6.94283 28.2366C6.01716 28.2551 5.11818 27.9259 4.42338 27.314Z" stroke="black" stroke-width="1.5" stroke-linecap="round" stroke-linejoin="round"/>
<path d="M6.02338 20.5139L7.82338 22.4139" stroke="black" stroke-width="1.5" stroke-linecap="round" stroke-linejoin="round"/>
<path d="M16.9234 9.71411L18.7234 11.5141" stroke="black" stroke-width="1.5" stroke-linecap="round" stroke-linejoin="round"/>
<path d="M15.3234 18.7141L17.1234 20.5141" stroke="black" stroke-width="1.5" stroke-linecap="round" stroke-linejoin="round"/>
<path d="M25.6234 6.11401C25.8777 5.16385 26.4574 4.33309 27.2615 3.76657C28.0656 3.20005 29.043 2.93373 30.0234 3.01402" stroke="black" stroke-width="1.5" stroke-linecap="round" stroke-linejoin="round"/>
</svg>
