<svg width="33" height="32" viewBox="0 0 33 32" fill="none" xmlns="http://www.w3.org/2000/svg">
<path d="M24.6 31.0519C27.8033 31.0519 30.4 28.4552 30.4 25.2519C30.4 22.0487 27.8033 19.4519 24.6 19.4519C21.3968 19.4519 18.8 22.0487 18.8 25.2519C18.8 28.4552 21.3968 31.0519 24.6 31.0519Z" stroke="black" stroke-width="1.5" stroke-linecap="round" stroke-linejoin="round"/>
<path d="M9.3 31.0519C12.5033 31.0519 15.1 28.4552 15.1 25.2519C15.1 22.0487 12.5033 19.4519 9.3 19.4519C6.09675 19.4519 3.5 22.0487 3.5 25.2519C3.5 28.4552 6.09675 31.0519 9.3 31.0519Z" stroke="black" stroke-width="1.5" stroke-linecap="round" stroke-linejoin="round"/>
<path d="M24.6 19.4518C24.6 19.4518 22.3 9.05181 26.2 5.85181C10.6 8.25181 9.3 19.4518 9.3 19.4518" stroke="black" stroke-width="1.5" stroke-linecap="round" stroke-linejoin="round"/>
<path d="M18.8532 7.43457L18.4289 7.85883C16.7223 9.56542 14.4077 10.5242 11.9942 10.5242C9.58076 10.5242 7.26613 9.56541 5.55955 7.85883L5.98382 7.43457C7.6904 5.72799 10.005 4.76924 12.4185 4.76924C14.832 4.76924 17.1466 5.72799 18.8532 7.43457Z" stroke="black" stroke-width="1.5" stroke-linejoin="round"/>
</svg>
