<svg width="33" height="32" viewBox="0 0 33 32" fill="none" xmlns="http://www.w3.org/2000/svg">
<path d="M25.146 24.202C25.1657 24.4102 25.1789 24.6184 25.1789 24.8267C25.1789 28.5744 21.806 31.5413 17.9072 30.9167C17.4732 30.8451 17.0525 30.7345 16.658 30.5718C14.2779 29.6479 12.6408 27.2861 12.7 24.69C12.7065 24.5534 12.7197 24.3842 12.746 24.215C12.792 23.9158 12.8578 23.6165 12.9432 23.3237C13.1536 22.6015 13.4824 21.9118 13.9097 21.2806C14.0807 21.0334 14.2582 20.7927 14.4423 20.5519C15.0932 19.7126 15.8361 18.9448 16.6645 18.2812C18.328 16.9343 20.3135 15.9714 22.4964 15.529C23.3905 15.3403 24.3241 15.2427 25.2775 15.2427C25.8035 15.2427 26.3163 15.2687 26.8226 15.3338C25.6522 17.3247 24.9816 19.6345 24.9816 22.107C24.9816 22.699 25.0211 23.2781 25.1 23.8507C25.1131 23.9678 25.1263 24.0849 25.146 24.202Z" stroke="black" stroke-width="1.5" stroke-linecap="round" stroke-linejoin="round"/>
<path d="M16.658 30.5718C16.2635 30.7345 15.8493 30.8451 15.4154 30.9167C11.51 31.5413 8.14369 28.5744 8.14369 24.8267C8.14369 24.6184 8.15684 24.4102 8.17656 24.202C8.19629 24.0849 8.20944 23.9678 8.22259 23.8507C8.30148 23.2781 8.34093 22.699 8.34093 22.107C8.34093 19.6345 7.67031 17.3247 6.5 15.3338C7.00626 15.2687 7.51909 15.2427 8.04507 15.2427C8.99841 15.2427 9.93202 15.3403 10.8328 15.529C13.0156 15.9714 15.0012 16.9343 16.6646 18.2812C15.8362 18.9448 15.0932 19.7126 14.4423 20.5519C14.2582 20.7927 14.0807 21.0334 13.9098 21.2806C13.4824 21.9118 13.1537 22.6015 12.9433 23.3237C12.8578 23.6165 12.792 23.9158 12.746 24.215C12.7197 24.3842 12.7066 24.5534 12.7 24.69C12.6408 27.2861 14.2779 29.6479 16.658 30.5718Z" stroke="black" stroke-width="1.5" stroke-linecap="round" stroke-linejoin="round"/>
<path d="M22.5687 13.5639C22.5687 14.2341 22.5424 14.8912 22.4964 15.5289C20.3136 15.9713 18.328 16.9343 16.6646 18.2811C15.0012 16.9343 13.0156 15.9713 10.8328 15.5289C10.7868 14.8912 10.7605 14.2341 10.7605 13.5639C10.7605 6.62156 13.4035 1 16.6646 1C19.9257 1 22.5687 6.62156 22.5687 13.5639Z" stroke="black" stroke-width="1.5" stroke-linecap="round" stroke-linejoin="round"/>
</svg>
