<svg width="33" height="32" viewBox="0 0 33 32" fill="none" xmlns="http://www.w3.org/2000/svg">
<path d="M25.1376 24.1969C25.1577 24.4062 25.1678 24.6156 25.1678 24.8249C25.1678 28.5731 21.7929 31.5338 17.8941 30.9157C17.4609 30.846 17.0378 30.7363 16.6449 30.5668C14.2673 29.6398 12.6252 27.2772 12.6856 24.6854C12.6856 24.5458 12.7058 24.3763 12.736 24.2069C12.7864 23.9078 12.8468 23.6087 12.9375 23.3197C13.1491 22.6019 13.4815 21.9041 13.9046 21.2761C14.0759 21.0269 14.2572 20.7876 14.4386 20.5484C15.0934 19.711 15.8288 18.9434 16.665 18.2755C18.3273 16.9298 20.3119 15.9628 22.4981 15.5242C23.3947 15.3348 24.3215 15.2351 25.2786 15.2351C25.8025 15.2351 26.3163 15.265 26.82 15.3248C25.6513 17.3185 24.9764 19.6213 24.9764 22.0935C24.9764 22.6817 25.0167 23.2598 25.0973 23.838C25.1073 23.9576 25.1275 24.0673 25.1476 24.1869L25.1376 24.1969Z" stroke="black" stroke-width="1.5" stroke-linecap="round" stroke-linejoin="round"/>
<path d="M16.655 30.5669C16.2621 30.7264 15.849 30.836 15.4158 30.9158C11.507 31.5438 8.14212 28.5732 8.14212 24.825C8.14212 24.6156 8.1522 24.4063 8.17235 24.1969C8.19249 24.0773 8.20257 23.9677 8.22272 23.848C8.30331 23.2798 8.34361 22.7016 8.34361 22.1035C8.34361 19.6313 7.66863 17.3186 6.5 15.3348C7.00372 15.2651 7.51751 15.2451 8.04138 15.2451C8.99844 15.2451 9.92529 15.3448 10.832 15.5342C13.0181 15.9728 15.0028 16.9398 16.665 18.2855C15.8389 18.9534 15.0934 19.721 14.4386 20.5584C14.2573 20.7976 14.0759 21.0369 13.9047 21.2861C13.4815 21.9141 13.1491 22.602 12.9375 23.3297C12.8569 23.6188 12.7864 23.9178 12.736 24.2169C12.7058 24.3863 12.6957 24.5558 12.6857 24.6954C12.6252 27.2872 14.2673 29.6498 16.6449 30.5769L16.655 30.5669Z" stroke="black" stroke-width="1.5" stroke-linecap="round" stroke-linejoin="round"/>
<path d="M22.5686 13.5605C22.5686 14.2284 22.5384 14.8863 22.4981 15.5243C20.3119 15.9629 18.3273 16.9299 16.665 18.2756C15.0028 16.9299 13.0181 15.9629 10.832 15.5243C10.7816 14.8863 10.7614 14.2284 10.7614 13.5605C10.7614 6.6223 13.4009 1 16.665 1C19.9291 1 22.5686 6.6223 22.5686 13.5605Z" stroke="black" stroke-width="1.5" stroke-linecap="round" stroke-linejoin="round"/>
<path d="M19.8788 9.27393H13.4514" stroke="black" stroke-width="1.5" stroke-linecap="round" stroke-linejoin="round"/>
<path d="M19.8788 12.2346H13.4514" stroke="black" stroke-width="1.5" stroke-linecap="round" stroke-linejoin="round"/>
<path d="M15.1639 7.56934V13.9293" stroke="black" stroke-width="1.5" stroke-linecap="round" stroke-linejoin="round"/>
<path d="M18.156 7.56934V13.9293" stroke="black" stroke-width="1.5" stroke-linecap="round" stroke-linejoin="round"/>
</svg>
