<svg width="33" height="32" viewBox="0 0 33 32" fill="none" xmlns="http://www.w3.org/2000/svg">
<path d="M29.563 8.42765C29.2697 5.66217 26.5796 3.63415 23.8644 4.19562C23.4705 4.27943 23.0766 4.41351 22.7163 4.61464C20.6212 5.80463 17.8139 9.75173 15.2495 13.7491C13.1377 17.0342 8.1598 20.2019 6.45023 21.2243C5.66249 21.6936 4.14529 22.3547 3.50001 23C2.28487 24.2151 1.78243 26.0094 2.98081 27.9201C4.44735 30.2582 8.8805 29.9649 13.3975 27.8698C17.9144 25.7748 27.8199 18.1906 29.5211 11.4613C29.8144 10.3048 29.6552 9.28244 29.563 8.42765Z" stroke="black" stroke-width="1.5" stroke-linecap="round" stroke-linejoin="round"/>
<path d="M7.19609 26.5959C7.63577 26.5959 7.99221 26.2395 7.99221 25.7998C7.99221 25.3601 7.63577 25.0037 7.19609 25.0037C6.7564 25.0037 6.39996 25.3601 6.39996 25.7998C6.39996 26.2395 6.7564 26.5959 7.19609 26.5959Z" fill="black"/>
<path d="M11.7047 25.5988C12.1443 25.5988 12.5008 25.2424 12.5008 24.8027C12.5008 24.363 12.1443 24.0066 11.7047 24.0066C11.265 24.0066 10.9085 24.363 10.9085 24.8027C10.9085 25.2424 11.265 25.5988 11.7047 25.5988Z" fill="black"/>
<path d="M12.0063 21.7605C12.446 21.7605 12.8025 21.404 12.8025 20.9643C12.8025 20.5246 12.446 20.1682 12.0063 20.1682C11.5666 20.1682 11.2102 20.5246 11.2102 20.9643C11.2102 21.404 11.5666 21.7605 12.0063 21.7605Z" fill="black"/>
<path d="M16.4898 22.7075C16.9295 22.7075 17.2859 22.351 17.2859 21.9114C17.2859 21.4717 16.9295 21.1152 16.4898 21.1152C16.0501 21.1152 15.6937 21.4717 15.6937 21.9114C15.6937 22.351 16.0501 22.7075 16.4898 22.7075Z" fill="black"/>
<path d="M15.8529 18.6516C16.2926 18.6516 16.649 18.2951 16.649 17.8555C16.649 17.4158 16.2926 17.0593 15.8529 17.0593C15.4132 17.0593 15.0568 17.4158 15.0568 17.8555C15.0568 18.2951 15.4132 18.6516 15.8529 18.6516Z" fill="black"/>
<path d="M19.6575 19.4392C20.0972 19.4392 20.4536 19.0827 20.4536 18.643C20.4536 18.2034 20.0972 17.8469 19.6575 17.8469C19.2178 17.8469 18.8614 18.2034 18.8614 18.643C18.8614 19.0827 19.2178 19.4392 19.6575 19.4392Z" fill="black"/>
<path d="M18.9955 15.3833C19.4352 15.3833 19.7916 15.0268 19.7916 14.5871C19.7916 14.1475 19.4352 13.791 18.9955 13.791C18.5558 13.791 18.1994 14.1475 18.1994 14.5871C18.1994 15.0268 18.5558 15.3833 18.9955 15.3833Z" fill="black"/>
<path d="M23.0851 15.3833C23.5248 15.3833 23.8812 15.0268 23.8812 14.5871C23.8812 14.1475 23.5248 13.791 23.0851 13.791C22.6454 13.791 22.2889 14.1475 22.2889 14.5871C22.2889 15.0268 22.6454 15.3833 23.0851 15.3833Z" fill="black"/>
<path d="M21.4341 11.3523C21.8738 11.3523 22.2302 10.9958 22.2302 10.5561C22.2302 10.1164 21.8738 9.76001 21.4341 9.76001C20.9944 9.76001 20.638 10.1164 20.638 10.5561C20.638 10.9958 20.9944 11.3523 21.4341 11.3523Z" fill="black"/>
<path d="M25.4902 10.7573C25.9299 10.7573 26.2863 10.4008 26.2863 9.96116C26.2863 9.52148 25.9299 9.16504 25.4902 9.16504C25.0505 9.16504 24.6941 9.52148 24.6941 9.96116C24.6941 10.4008 25.0505 10.7573 25.4902 10.7573Z" fill="black"/>
<path d="M27.2835 4.83253C27.2835 4.83253 27.7612 2.23465 29.8563 2" stroke="black" stroke-width="1.5" stroke-linecap="round" stroke-linejoin="round"/>
</svg>
