<svg width="33" height="32" viewBox="0 0 33 32" fill="none" xmlns="http://www.w3.org/2000/svg">
<path d="M20.6233 18.4823C20.6233 20.1819 20.2019 21.7692 19.4434 23.1598C17.7718 26.222 14.527 28.301 10.8046 28.301C5.38259 28.301 1 23.9043 1 18.4823C1 13.0602 5.38259 8.66357 10.8046 8.66357C11.8441 8.66357 12.8414 8.81809 13.7826 9.12712C17.7437 10.3773 20.6233 14.0997 20.6233 18.4823Z" stroke="black" stroke-width="1.5" stroke-linecap="round" stroke-linejoin="round"/>
<path d="M10.8046 13.8047V15.3779" stroke="black" stroke-width="1.5" stroke-linecap="round" stroke-linejoin="round"/>
<path d="M7.82669 23.1599L8.71164 21.8535" stroke="black" stroke-width="1.5" stroke-linecap="round" stroke-linejoin="round"/>
<path d="M13.7966 23.1599L12.9116 21.8535" stroke="black" stroke-width="1.5" stroke-linecap="round" stroke-linejoin="round"/>
<path d="M5.84616 17.3164L7.33512 17.78" stroke="black" stroke-width="1.5" stroke-linecap="round" stroke-linejoin="round"/>
<path d="M15.7773 17.3164L14.2743 17.78" stroke="black" stroke-width="1.5" stroke-linecap="round" stroke-linejoin="round"/>
<path d="M32.24 13.8046C32.24 19.2267 27.8433 23.6233 22.4213 23.6233C21.3818 23.6233 20.3845 23.4688 19.4433 23.1598C20.2019 21.7692 20.6233 20.1819 20.6233 18.4822C20.6233 14.0996 17.7437 10.3772 13.7825 9.12707C15.4541 6.07892 18.6989 4 22.4213 4C27.8433 4 32.24 8.39664 32.24 13.8046Z" stroke="black" stroke-width="1.5" stroke-linecap="round" stroke-linejoin="round"/>
<path d="M22.4213 9.14111V10.7003" stroke="black" stroke-width="1.5" stroke-linecap="round" stroke-linejoin="round"/>
<path d="M25.4133 18.4822L24.5284 17.1899" stroke="black" stroke-width="1.5" stroke-linecap="round" stroke-linejoin="round"/>
<path d="M27.3938 12.6387L25.8908 13.1022" stroke="black" stroke-width="1.5" stroke-linecap="round" stroke-linejoin="round"/>
</svg>
