<svg width="33" height="32" viewBox="0 0 33 32" fill="none" xmlns="http://www.w3.org/2000/svg">
<path d="M19.3459 21.1432C13.0903 27.3987 8.28624 30.2236 5.13748 29.0301C5.13748 29.0301 5.12548 29.0301 5.11349 29.0301L4.75363 29.0181L3.68005 28.9761C3.23023 28.9581 2.7984 28.5263 2.77441 28.0704L2.73243 26.9969L2.71444 26.631L2.71444 26.607C1.52091 23.4583 4.34579 18.6542 10.6013 12.3986C17.9244 5.07551 22.8425 2.97634 25.8053 5.93917C28.7682 8.902 26.669 13.8201 19.3459 21.1432Z" stroke="black" stroke-width="1.5" stroke-linecap="round" stroke-linejoin="round"/>
<path d="M25.7573 5.89121L27.1908 4.45777C27.8145 3.83402 28.8341 3.83402 29.4579 4.45777L30.0816 5.08153" stroke="black" stroke-width="1.5" stroke-linecap="round" stroke-linejoin="round"/>
<path d="M23.5322 8.29639L6.22905 25.5996" stroke="black" stroke-width="1.5" stroke-linecap="round" stroke-linejoin="round"/>
<path d="M20.5094 8.08048C15.3094 12.2848 10.4933 17.1489 5.9951 22.5948" stroke="black" stroke-width="1.5" stroke-linecap="round" stroke-linejoin="round"/>
<path d="M23.7721 11.3071C19.5677 16.5071 14.7037 21.3232 9.25781 25.8214" stroke="black" stroke-width="1.5" stroke-linecap="round" stroke-linejoin="round"/>
</svg>
