<svg width="33" height="32" viewBox="0 0 33 32" fill="none" xmlns="http://www.w3.org/2000/svg">
<path d="M21.5436 9.58537C21.0777 9.58537 20.6999 9.20763 20.6999 8.74166C20.6999 8.27569 21.0777 7.89795 21.5436 7.89795C22.0096 7.89795 22.3873 8.27569 22.3873 8.74166C22.3873 9.20763 22.0096 9.58537 21.5436 9.58537Z" fill="black"/>
<path d="M20.6999 13.8041C20.2339 13.8041 19.8562 13.4264 19.8562 12.9604C19.8562 12.4944 20.2339 12.1167 20.6999 12.1167C21.1659 12.1167 21.5436 12.4944 21.5436 12.9604C21.5436 13.4264 21.1659 13.8041 20.6999 13.8041Z" fill="black"/>
<path d="M16.4814 14.6476C16.0154 14.6476 15.6376 14.2699 15.6376 13.8039C15.6376 13.3379 16.0154 12.9602 16.4814 12.9602C16.9473 12.9602 17.3251 13.3379 17.3251 13.8039C17.3251 14.2699 16.9473 14.6476 16.4814 14.6476Z" fill="black"/>
<path d="M15.6376 18.8664C15.1717 18.8664 14.7939 18.4886 14.7939 18.0227C14.7939 17.5567 15.1717 17.179 15.6376 17.179C16.1036 17.179 16.4813 17.5567 16.4813 18.0227C16.4813 18.4886 16.1036 18.8664 15.6376 18.8664Z" fill="black"/>
<path d="M11.4191 18.8664C10.9531 18.8664 10.5754 18.4886 10.5754 18.0227C10.5754 17.5567 10.9531 17.179 11.4191 17.179C11.8851 17.179 12.2628 17.5567 12.2628 18.0227C12.2628 18.4886 11.8851 18.8664 11.4191 18.8664Z" fill="black"/>
<path d="M10.5754 22.2411C10.1094 22.2411 9.73164 21.8634 9.73164 21.3974C9.73164 20.9315 10.1094 20.5537 10.5754 20.5537C11.0413 20.5537 11.4191 20.9315 11.4191 21.3974C11.4191 21.8634 11.0413 22.2411 10.5754 22.2411Z" fill="black"/>
<path d="M6.35677 23.0849C5.8908 23.0849 5.51306 22.7071 5.51306 22.2412C5.51306 21.7752 5.8908 21.3975 6.35677 21.3975C6.82274 21.3975 7.20049 21.7752 7.20049 22.2412C7.20049 22.7071 6.82274 23.0849 6.35677 23.0849Z" fill="black"/>
<path d="M5.84216 18.2673C6.39901 17.761 6.90524 17.3054 7.40303 16.8667C7.28491 16.7233 7.20054 16.5461 7.20054 16.3436C7.20054 15.8796 7.58021 15.4999 8.04425 15.4999C8.28049 15.4999 8.49985 15.6011 8.65172 15.7614C9.34357 15.154 9.98479 14.5971 10.5754 14.074C11.2082 13.5256 11.7988 13.0109 12.3641 12.5047C12.305 12.3866 12.2544 12.26 12.2544 12.1166C12.2544 11.6526 12.634 11.2729 13.0981 11.2729C13.2753 11.2729 13.4271 11.3404 13.5621 11.4248C14.8108 10.2857 16.0426 9.10455 17.5107 7.56899C17.3926 7.42556 17.3167 7.24838 17.3167 7.05432C17.3167 6.59028 17.6963 6.21061 18.1604 6.21061C18.3375 6.21061 18.4978 6.27811 18.6328 6.37935C19.0716 5.90688 19.5356 5.40065 20.025 4.85223C22.7586 1.38458 25.8213 1.58707 27.6184 2.80201C29.7361 4.24476 30.951 7.55211 29.0358 10.8426C28.2849 12.2347 27.5509 13.5003 26.8 14.6899C27.1712 14.7743 27.4581 15.0949 27.4581 15.4999C27.4581 15.9639 27.0784 16.3436 26.6144 16.3436C26.3359 16.3436 26.0997 16.2002 25.9478 15.9977C24.7329 17.7948 23.4673 19.3641 22.0921 20.7731C22.2692 20.925 22.3958 21.1528 22.3958 21.4059C22.3958 21.8699 22.0161 22.2496 21.5521 22.2496C21.2905 22.2496 21.0627 22.123 20.9109 21.9374C19.2994 23.4223 17.5276 24.747 15.4858 26.0041C15.5786 26.1391 15.6461 26.2994 15.6461 26.4766C15.6461 26.9406 15.2664 27.3203 14.8024 27.3203C14.4733 27.3203 14.1949 27.1262 14.0599 26.8563C13.3512 27.2612 12.6256 27.6578 11.8494 28.0543C10.6766 28.7209 9.55449 29.0077 8.52516 29.0077C6.49182 29.0077 4.82127 27.9025 3.90162 26.4682C2.47574 24.2408 2.47574 20.7393 5.85903 18.2841L5.84216 18.2673Z" stroke="black" stroke-width="1.5" stroke-linecap="round" stroke-linejoin="round"/>
<path d="M27.7787 6.92773C27.9052 7.76301 27.6943 8.68266 27.1796 9.56856L27.1459 9.62761C22.7248 17.8623 18.7931 21.7855 11.0057 25.7932L10.9213 25.8353C10.1704 26.2656 8.98918 26.4597 8.38171 26.4597" stroke="black" stroke-width="1.5" stroke-linecap="round" stroke-linejoin="round"/>
</svg>
