<svg width="32" height="32" viewBox="0 0 32 32" fill="none" xmlns="http://www.w3.org/2000/svg">
<path d="M13.0815 1C13.634 1.42127 14.145 1.93232 14.5801 2.52624C16.7486 5.48895 16.3619 9.45994 13.7099 11.3936C11.0649 13.3343 7.16298 12.4986 4.99448 9.53591C4.55939 8.94199 4.2279 8.29972 4 7.65055" stroke="black" stroke-width="1.5" stroke-linecap="round" stroke-linejoin="round"/>
<path d="M10.8301 3.79004C13.4959 7.13258 14.8909 10.4475 13.9447 11.2072C12.9986 11.9599 10.0704 9.86739 7.40469 6.53175" stroke="black" stroke-width="1.5" stroke-linecap="round" stroke-linejoin="round"/>
<path d="M28.7928 7.69208C28.8688 8.25147 28.8688 8.83158 28.779 9.4186C28.3232 12.3537 25.8301 14.4048 23.2127 13.9904C20.5884 13.5899 18.8342 10.8758 19.29 7.9476C19.3798 7.36058 19.5594 6.80119 19.8011 6.30396" stroke="black" stroke-width="1.5" stroke-linecap="round" stroke-linejoin="round"/>
<path d="M25.9129 8.00278C25.5262 11.4351 24.4281 14.1354 23.4544 14.0249C22.4806 13.9144 22.0041 11.0415 22.3908 7.60913" stroke="black" stroke-width="1.5" stroke-linecap="round" stroke-linejoin="round"/>
<path d="M13.9448 11.2073C13.9448 11.2073 22.1216 20.3026 23.7652 31.0001" stroke="black" stroke-width="1.5" stroke-linecap="round" stroke-linejoin="round"/>
<path d="M15.3605 21.6492C15.3605 21.6492 17.8605 25.4406 22.0663 24.7155" stroke="black" stroke-width="1.5" stroke-linecap="round" stroke-linejoin="round"/>
<path d="M19.6008 19.4185C19.6008 19.4185 23.192 17.6851 23.4544 14.0249" stroke="black" stroke-width="1.5" stroke-linecap="round" stroke-linejoin="round"/>
<path d="M6.17542 16.4972C6.85052 16.4972 7.3978 15.95 7.3978 15.2749C7.3978 14.5998 6.85052 14.0525 6.17542 14.0525C5.50032 14.0525 4.95305 14.5998 4.95305 15.2749C4.95305 15.95 5.50032 16.4972 6.17542 16.4972Z" stroke="black" stroke-width="1.5" stroke-linecap="round" stroke-linejoin="round"/>
<path d="M27.1423 18.652C27.8174 18.652 28.3646 18.1048 28.3646 17.4297C28.3646 16.7546 27.8174 16.2073 27.1423 16.2073C26.4672 16.2073 25.9199 16.7546 25.9199 17.4297C25.9199 18.1048 26.4672 18.652 27.1423 18.652Z" stroke="black" stroke-width="1.5" stroke-linecap="round" stroke-linejoin="round"/>
</svg>
