<svg width="33" height="32" viewBox="0 0 33 32" fill="none" xmlns="http://www.w3.org/2000/svg">
<path d="M29.6478 11.8C29.6629 13.4095 29.1734 14.9832 28.2479 16.3C27.3964 15.8581 26.6201 15.2844 25.9479 14.6C24.5878 13.3588 23.7631 11.6377 23.6478 9.80002C21.8095 9.58076 20.0911 8.77413 18.7479 7.50003C18.07 6.80646 17.5273 5.99252 17.1478 5.10001C18.4965 4.25377 20.0557 3.80335 21.6478 3.80002C22.7867 3.77973 23.9153 4.01913 24.9479 4.50003C26.7135 5.31669 28.1312 6.73444 28.9479 8.50003C29.3918 9.5446 29.6295 10.6652 29.6478 11.8Z" stroke="black" stroke-width="1.5" stroke-linecap="round" stroke-linejoin="round"/>
<path d="M26.8478 5.70001C26.8478 5.70001 29.2479 6 30.2479 3" stroke="black" stroke-width="1.5" stroke-linecap="round" stroke-linejoin="round"/>
<path d="M15.9479 10.3999C13.3412 13.5622 9.91689 15.9489 6.04783 17.2999C0.447828 19.1999 1.54782 28.6 8.84782 28.7C16.1478 28.8 18.8478 26.1999 23.3478 18.5999" stroke="black" stroke-width="1.5" stroke-linecap="round" stroke-linejoin="round"/>
</svg>
