<svg width="32" height="32" viewBox="0 0 32 32" fill="none" xmlns="http://www.w3.org/2000/svg">
<path d="M14.0535 31.0001V2.55518" stroke="black" stroke-width="1.5" stroke-linecap="round" stroke-linejoin="round"/>
<path d="M15.8527 1L14.9531 1.78103L14.0535 2.55509L13.1539 1.78103L12.2543 1" stroke="black" stroke-width="1.5" stroke-linecap="round" stroke-linejoin="round"/>
<path d="M14.0535 7.59554C16.5918 7.59554 18.649 5.53835 18.649 3" stroke="black" stroke-width="1.5" stroke-linecap="round" stroke-linejoin="round"/>
<path d="M14.0535 10.9861C11.0479 10.9861 8.60715 8.54537 8.60715 5.53979" stroke="black" stroke-width="1.5" stroke-linecap="round" stroke-linejoin="round"/>
<path d="M9.26264 8.12004C8.80936 8.37806 8.2724 8.48964 7.7215 8.39898C6.45929 8.18978 5.60853 6.99034 5.8247 5.73511" stroke="black" stroke-width="1.5" stroke-linecap="round" stroke-linejoin="round"/>
<path d="M14.0535 15.484C17.3938 15.484 20.0995 12.7783 20.0995 9.43799" stroke="black" stroke-width="1.5" stroke-linecap="round" stroke-linejoin="round"/>
<path d="M19.3813 12.311C19.8833 12.6038 20.4831 12.7224 21.0967 12.6178C22.4984 12.3807 23.4398 11.0557 23.2027 9.65405" stroke="black" stroke-width="1.5" stroke-linecap="round" stroke-linejoin="round"/>
<path d="M14.0535 21.4114C10.3924 21.4114 7.42865 18.4477 7.42865 14.7866" stroke="black" stroke-width="1.5" stroke-linecap="round" stroke-linejoin="round"/>
<path d="M8.22363 17.9317C7.67272 18.2455 7.01721 18.385 6.34776 18.2734C4.81359 18.0154 3.78151 16.5649 4.03953 15.0308" stroke="black" stroke-width="1.5" stroke-linecap="round" stroke-linejoin="round"/>
<path d="M14.0535 26C19.1232 26 23.2376 21.8857 23.2376 16.8159" stroke="black" stroke-width="1.5" stroke-linecap="round" stroke-linejoin="round"/>
<path d="M22.1427 21.1813C22.9028 21.6206 23.8094 21.8089 24.7438 21.6485C26.8708 21.2929 28.3003 19.2776 27.9447 17.1506" stroke="black" stroke-width="1.5" stroke-linecap="round" stroke-linejoin="round"/>
</svg>
