<svg width="33" height="32" viewBox="0 0 33 32" fill="none" xmlns="http://www.w3.org/2000/svg">
<path d="M25.5893 21.2247C25.5893 26.6547 20.684 30.9304 15.0704 29.8549C11.5422 29.186 8.7354 26.3005 8.13207 22.7724C7.62055 19.7688 8.63047 16.962 10.5454 15.034C11.4504 14.1159 11.9094 12.8961 11.9094 11.6108C11.9094 11.6108 11.9094 11.5976 11.9094 11.5845C11.9094 8.48918 14.8081 6.06274 18.0477 6.86281C19.8577 7.30875 21.2873 8.8433 21.6021 10.6795C21.6808 11.0992 21.6939 11.5058 21.6677 11.9124C21.589 13.0928 22.1792 14.1815 23.0186 15.0078C24.6056 16.5948 25.5893 18.7851 25.5893 21.2116V21.2247Z" stroke="black" stroke-width="1.5" stroke-linecap="round" stroke-linejoin="round"/>
<path d="M16.8017 6.71852C16.8017 6.71852 16.1327 2.88869 19.7265 1" stroke="black" stroke-width="1.5" stroke-linecap="round" stroke-linejoin="round"/>
<path d="M10.3224 1.94434H12.0275C14.6638 1.94434 16.8017 4.08222 16.8017 6.71851H15.0966C12.4603 6.71851 10.3224 4.58063 10.3224 1.94434Z" stroke="black" stroke-width="1.5" stroke-linecap="round" stroke-linejoin="round"/>
</svg>
