<svg width="33" height="32" viewBox="0 0 33 32" fill="none" xmlns="http://www.w3.org/2000/svg">
<path d="M16.7601 6.28588C16.7601 6.28588 16.2527 3.1883 18.6426 2" stroke="black" stroke-width="1.5" stroke-linecap="round" stroke-linejoin="round"/>
<path d="M15.011 22.9621C15.4755 22.9621 15.8521 22.4241 15.8521 21.7605C15.8521 21.0968 15.4755 20.5588 15.011 20.5588C14.5464 20.5588 14.1698 21.0968 14.1698 21.7605C14.1698 22.4241 14.5464 22.9621 15.011 22.9621Z" fill="black"/>
<path d="M18.4958 22.9621C18.9603 22.9621 19.3369 22.4241 19.3369 21.7605C19.3369 21.0968 18.9603 20.5588 18.4958 20.5588C18.0312 20.5588 17.6546 21.0968 17.6546 21.7605C17.6546 22.4241 18.0312 22.9621 18.4958 22.9621Z" fill="black"/>
<path d="M25.9193 21.36C25.492 20.3586 24.731 19.5308 23.8765 18.8632C23.6896 18.7163 23.516 18.5695 23.3424 18.4093C21.9538 17.0874 21.0993 15.2182 21.0993 13.1621C21.0993 12.8416 21.313 12.2542 21.353 10.9457C21.4331 8.38217 19.2969 6.32602 16.7467 6.29932C16.7467 6.29932 16.7334 6.29932 16.72 6.29932C16.72 6.29932 16.7066 6.29932 16.6933 6.29932C14.1431 6.32602 12.0069 8.39553 12.087 10.959C12.127 12.2675 12.3407 12.855 12.3407 13.1754C12.3407 15.2316 11.4862 17.1008 10.0976 18.4226C9.92401 18.5828 9.75044 18.7297 9.56352 18.8766C8.70901 19.5441 7.94797 20.372 7.52071 21.3733C7.18692 22.1611 7 23.0289 7 23.9368C7 27.5151 9.91066 30.4257 13.5023 30.4257C14.6638 30.4257 15.7587 30.1187 16.72 29.5712C17.6813 30.1187 18.7762 30.4257 19.9377 30.4257C23.5293 30.4257 26.44 27.5151 26.44 23.9368C26.44 23.0289 26.2531 22.1611 25.9193 21.3733V21.36Z" stroke="black" stroke-width="1.5" stroke-linecap="round" stroke-linejoin="round"/>
</svg>
