<svg width="32" height="32" viewBox="0 0 32 32" fill="none" xmlns="http://www.w3.org/2000/svg">
<path d="M17.7 19.5375L14.8563 22.3812H15.39C16.02 22.3812 16.58 22.6262 16.9912 23.0375C17.4025 23.4487 17.6475 24.0087 17.6475 24.6387C17.6475 25.8812 16.6412 26.8875 15.39 26.8962H10.35L8.6 28.6375L3 23.0375L7.50625 18.5312V11.155C7.50625 9.615 8.7575 8.3725 10.2887 8.3725C11.05 8.3725 11.75 8.6875 12.2575 9.195C12.765 9.7025 13.0713 10.3937 13.0713 11.1637V12.9662L16.9912 9.04625V5.7825C16.9912 4.2425 18.2425 3 19.7738 3C20.5438 3 21.235 3.315 21.7425 3.81375C21.97 4.04125 22.1625 4.30375 22.3025 4.60125C23.58 4.30375 24.98 4.65375 25.9863 5.66C26.7563 6.43 27.15 7.445 27.1413 8.46875C27.1413 9.48375 26.7563 10.4988 25.9775 11.2688L24.245 13.0013H25.1025C26.0125 13.0013 26.8262 13.3688 27.4212 13.955C28.0162 14.5413 28.375 15.3725 28.375 16.2738C28.375 18.0763 26.905 19.5462 25.1025 19.5462H17.6913L17.7 19.5375Z" stroke="black" stroke-width="1.5" stroke-linecap="round" stroke-linejoin="round"/>
<path d="M17.7 19.5375L15.7663 17.595" stroke="black" stroke-width="1.5" stroke-linecap="round" stroke-linejoin="round"/>
<path d="M17.0088 9.02881L18.6363 10.6651" stroke="black" stroke-width="1.5" stroke-linecap="round" stroke-linejoin="round"/>
<path d="M22.8625 17.2888H23.8688" stroke="black" stroke-width="1.5" stroke-linecap="round" stroke-linejoin="round"/>
<path d="M21.34 7.14746L22.9762 8.78371" stroke="black" stroke-width="1.5" stroke-linecap="round" stroke-linejoin="round"/>
<path d="M7.50627 18.5225L9.46627 20.4825" stroke="black" stroke-width="1.5" stroke-linecap="round" stroke-linejoin="round"/>
<path d="M9.61499 12.3538V13.7363" stroke="black" stroke-width="1.5" stroke-linecap="round" stroke-linejoin="round"/>
<path d="M8.39874 22.5737L10.35 24.5337" stroke="black" stroke-width="1.5" stroke-linecap="round" stroke-linejoin="round"/>
</svg>
