<svg width="33" height="32" viewBox="0 0 33 32" fill="none" xmlns="http://www.w3.org/2000/svg">
<path d="M9.10001 14.7C11.0882 14.7 12.7 13.0882 12.7 11.1C12.7 9.11175 11.0882 7.5 9.10001 7.5C7.11178 7.5 5.5 9.11175 5.5 11.1C5.5 13.0882 7.11178 14.7 9.10001 14.7Z" stroke="black" stroke-width="1.5" stroke-linecap="round" stroke-linejoin="round"/>
<path d="M16.4 14.7C18.3882 14.7 20 13.0882 20 11.1C20 9.11175 18.3882 7.5 16.4 7.5C14.4118 7.5 12.8 9.11175 12.8 11.1C12.8 13.0882 14.4118 14.7 16.4 14.7Z" stroke="black" stroke-width="1.5" stroke-linecap="round" stroke-linejoin="round"/>
<path d="M23.7 14.7C25.6882 14.7 27.3 13.0882 27.3 11.1C27.3 9.11175 25.6882 7.5 23.7 7.5C21.7118 7.5 20.1 9.11175 20.1 11.1C20.1 13.0882 21.7118 14.7 23.7 14.7Z" stroke="black" stroke-width="1.5" stroke-linecap="round" stroke-linejoin="round"/>
<path d="M12.8 22.0001C14.7882 22.0001 16.4 20.3883 16.4 18.4001C16.4 16.4118 14.7882 14.8 12.8 14.8C10.8118 14.8 9.19998 16.4118 9.19998 18.4001C9.19998 20.3883 10.8118 22.0001 12.8 22.0001Z" stroke="black" stroke-width="1.5" stroke-linecap="round" stroke-linejoin="round"/>
<path d="M20 22.0001C21.9882 22.0001 23.6 20.3883 23.6 18.4001C23.6 16.4118 21.9882 14.8 20 14.8C18.0118 14.8 16.4 16.4118 16.4 18.4001C16.4 20.3883 18.0118 22.0001 20 22.0001Z" stroke="black" stroke-width="1.5" stroke-linecap="round" stroke-linejoin="round"/>
<path d="M16.4 28.7C18.3882 28.7 20 27.0882 20 25.1C20 23.1118 18.3882 21.5 16.4 21.5C14.4118 21.5 12.8 23.1118 12.8 25.1C12.8 27.0882 14.4118 28.7 16.4 28.7Z" stroke="black" stroke-width="1.5" stroke-linecap="round" stroke-linejoin="round"/>
<path d="M16.4 7.5C16.2739 6.64783 16.3844 5.77737 16.7195 4.98376C17.0546 4.19016 17.6013 3.50392 18.3 3" stroke="black" stroke-width="1.5" stroke-linecap="round" stroke-linejoin="round"/>
</svg>
