<svg width="32" height="32" viewBox="0 0 32 32" fill="none" xmlns="http://www.w3.org/2000/svg">
<path d="M10 23C10 25.2851 11.8561 27.1325 14.1325 27.1325" stroke="black" stroke-width="1.5" stroke-linecap="round" stroke-linejoin="round"/>
<path d="M25.175 26.4019C25.7966 25.8765 26.3482 25.2724 26.7422 24.5545C27.2675 23.5914 27.5739 22.497 27.5739 21.3238C27.5739 20.422 27.1974 19.4239 26.8822 18.6359C28.8784 16.9724 30.253 14.4509 29.0798 11.3252C28.213 9.02259 26.1205 7.35033 23.6953 6.92132C22.3995 6.68493 21.6903 6.93883 20.7535 7.25402C20.0706 4.82005 17.6717 2.96393 15.0188 2.96393C13.7756 2.96393 12.9438 3.0865 11.9982 3.7519C11.0352 2.63122 9.38916 2.09715 7.77818 2.0096C5.09031 1.86076 2.64758 3.45422 1.79832 6.00201C0.887765 8.74242 2.17479 11.1501 4.12722 12.4984C3.1729 13.5316 2.46372 14.9674 2.46372 16.4821C2.46372 19.3801 4.84516 21.7003 7.62934 22.1293C7.57681 22.4707 7.29664 22.891 7.29664 23.2499C7.29664 26.9885 10.326 30.009 14.0557 30.009C16.0169 30.009 17.768 28.722 19.0112 27.3824C19.4928 27.7414 20.2019 28.0741 20.8236 28.0741C21.4014 28.0741 21.9618 28.0041 22.4958 27.864C23.4852 27.6101 24.387 27.076 25.1662 26.4106L25.1925 26.3931L25.175 26.4019Z" stroke="black" stroke-width="1.5" stroke-linecap="round" stroke-linejoin="round"/>
<path d="M25.1399 26.4193L27.7052 28.9846" stroke="black" stroke-width="1.5" stroke-linecap="round" stroke-linejoin="round"/>
<path d="M6.65745 7.07031C6.65745 7.07031 15.9731 13.7769 23.6427 24.2044" stroke="black" stroke-width="1.5" stroke-linecap="round" stroke-linejoin="round"/>
<path d="M10.2384 6.92139V9.93321" stroke="black" stroke-width="1.5" stroke-linecap="round" stroke-linejoin="round"/>
<path d="M15.5178 7.9458L14.4934 13.8031" stroke="black" stroke-width="1.5" stroke-linecap="round" stroke-linejoin="round"/>
<path d="M8.9338 15.7993H16.4896" stroke="black" stroke-width="1.5" stroke-linecap="round" stroke-linejoin="round"/>
<path d="M23.4238 12.0608L19.7466 19.3364" stroke="black" stroke-width="1.5" stroke-linecap="round" stroke-linejoin="round"/>
<path d="M13.6267 21.858L20.3595 20.0457" stroke="black" stroke-width="1.5" stroke-linecap="round" stroke-linejoin="round"/>
</svg>
