<svg width="32" height="32" viewBox="0 0 32 32" fill="none" xmlns="http://www.w3.org/2000/svg">
<path d="M15.54 7.52002V24.21C15.54 27.9 12.55 30.9 8.84998 30.9H7.41998" stroke="black" stroke-width="1.5" stroke-linecap="round" stroke-linejoin="round"/>
<path d="M10.15 9.86011C13.13 9.86011 15.54 12.2701 15.54 15.2501" stroke="black" stroke-width="1.5" stroke-linecap="round" stroke-linejoin="round"/>
<path d="M10.15 16.51C13.13 16.51 15.54 18.92 15.54 21.9" stroke="black" stroke-width="1.5" stroke-linecap="round" stroke-linejoin="round"/>
<path d="M20.94 9.86011C17.96 9.86011 15.55 12.2701 15.55 15.2501" stroke="black" stroke-width="1.5" stroke-linecap="round" stroke-linejoin="round"/>
<path d="M20.94 16.51C17.96 16.51 15.55 18.92 15.55 21.9" stroke="black" stroke-width="1.5" stroke-linecap="round" stroke-linejoin="round"/>
<path d="M23.23 21.44L22.33 22.31C18.53 25.98 12.5 25.97 8.72 22.28L7.86 21.44C7.31 20.9 7 20.17 7 19.4V10.64C7 8.82 7.71 7.06 9.01 5.78C10.64 4.17 12.81 2.87 15.51 2C18 2.83 20.25 4.06 21.92 5.57C23.33 6.85 24.1 8.69 24.1 10.59V19.4C24.1 20.17 23.79 20.91 23.23 21.45V21.44Z" stroke="black" stroke-width="1.5" stroke-linecap="round" stroke-linejoin="round"/>
</svg>
