<svg width="33" height="32" viewBox="0 0 33 32" fill="none" xmlns="http://www.w3.org/2000/svg">
<path d="M29.7 14C29.7 18.0313 28.0986 21.8975 25.248 24.748C22.3975 27.5986 18.5313 29.2 14.5 29.2C10.3689 29.1836 6.41295 27.5293 3.5 24.6L6.39999 21.7L22.2 5.89999L25 3C26.4821 4.42386 27.662 6.13172 28.4695 8.02164C29.2771 9.91156 29.6955 11.9448 29.7 14Z" stroke="black" stroke-width="1.5" stroke-linecap="round" stroke-linejoin="round"/>
<path d="M25.7 13.9999C25.693 16.2341 25.018 18.4151 23.7618 20.2626C22.5055 22.1101 20.7254 23.5397 18.6503 24.3676C16.5752 25.1955 14.2999 25.3839 12.1169 24.9085C9.93391 24.4331 7.94295 23.3157 6.39999 21.6999L22.2 5.8999C23.3015 6.94269 24.1796 8.19834 24.7813 9.5907C25.3829 10.9831 25.6955 12.4831 25.7 13.9999Z" stroke="black" stroke-width="1.5" stroke-linecap="round" stroke-linejoin="round"/>
<path d="M14.2 13.8999L22.3 21.9999" stroke="black" stroke-width="1.5" stroke-linecap="round" stroke-linejoin="round"/>
<path d="M14.2 13.8999V25.1999" stroke="black" stroke-width="1.5" stroke-linecap="round" stroke-linejoin="round"/>
<path d="M14.2 13.8999H25.7" stroke="black" stroke-width="1.5" stroke-linecap="round" stroke-linejoin="round"/>
</svg>
