<svg width="33" height="32" viewBox="0 0 33 32" fill="none" xmlns="http://www.w3.org/2000/svg">
<path d="M16 1C7.72 1 1 7.72 1 16C1 24.28 7.72 31 16 31C24.28 31 31 24.28 31 16C31 7.72 24.28 1 16 1Z" stroke="black" stroke-width="1.5" stroke-linecap="round" stroke-linejoin="round"/>
<path d="M16.92 14.3599C17.05 14.4399 17.21 14.4799 17.36 14.4799C17.51 14.4799 17.66 14.4399 17.79 14.3599L23.45 10.2599C23.84 10.0099 23.91 9.47993 23.6 9.10993C22.9 8.26993 22.22 7.63993 21.07 6.98993C19.92 6.33993 19.04 6.08993 17.95 5.92993C17.91 5.92993 17.86 5.92993 17.82 5.92993C17.4 5.92993 17.05 6.23993 17.04 6.65993L16.46 13.6299C16.46 13.9599 16.64 14.2299 16.91 14.3799L16.92 14.3599Z" stroke="black" stroke-width="1.5" stroke-linecap="round" stroke-linejoin="round"/>
<path d="M25.74 12.76C25.62 12.43 25.32 12.24 25.01 12.24C24.89 12.24 24.77 12.27 24.66 12.33L18.31 15.25C18.02 15.41 17.88 15.71 17.88 16.01C17.88 16.31 18.02 16.61 18.31 16.77L24.66 19.69C24.77 19.75 24.89 19.78 25.01 19.78C25.32 19.78 25.61 19.58 25.74 19.26C26.13 18.24 26.34 17.34 26.34 16.02C26.34 14.7 26.13 13.8 25.74 12.78V12.76Z" stroke="black" stroke-width="1.5" stroke-linecap="round" stroke-linejoin="round"/>
<path d="M23.78 21.3099L17.89 17.5399C17.76 17.4699 17.63 17.4399 17.5 17.4399C17.33 17.4399 17.16 17.4899 17.02 17.5899C16.77 17.7499 16.59 18.0399 16.62 18.3699L17.6 25.2899C17.63 25.6899 17.97 25.9799 18.37 25.9799C18.43 25.9799 18.49 25.9799 18.55 25.9599C19.62 25.7299 20.49 25.4299 21.6 24.7199C22.71 24.0099 23.35 23.3399 24 22.4599C24.29 22.0699 24.19 21.5499 23.79 21.3199L23.78 21.3099Z" stroke="black" stroke-width="1.5" stroke-linecap="round" stroke-linejoin="round"/>
<path d="M8.22 10.69L14.11 14.46C14.24 14.53 14.37 14.56 14.5 14.56C14.67 14.56 14.84 14.51 14.98 14.41C15.23 14.25 15.41 13.96 15.38 13.63L14.4 6.71002C14.37 6.31002 14.03 6.02002 13.63 6.02002C13.57 6.02002 13.51 6.02002 13.45 6.04002C12.38 6.27002 11.51 6.57002 10.4 7.28002C9.29 7.99002 8.65 8.66002 8 9.54002C7.71 9.93002 7.81 10.45 8.21 10.68L8.22 10.69Z" stroke="black" stroke-width="1.5" stroke-linecap="round" stroke-linejoin="round"/>
<path d="M14.12 16C14.12 15.7 13.97 15.4 13.69 15.24L7.33997 12.32C7.22997 12.26 7.10997 12.23 6.98997 12.23C6.67997 12.23 6.38997 12.43 6.25997 12.75C5.86997 13.77 5.65997 14.67 5.65997 15.99C5.65997 17.31 5.86997 18.21 6.25997 19.23C6.37997 19.56 6.67997 19.75 6.98997 19.75C7.10997 19.75 7.22997 19.72 7.33997 19.66L13.69 16.74C13.98 16.58 14.13 16.28 14.12 15.98V16Z" stroke="black" stroke-width="1.5" stroke-linecap="round" stroke-linejoin="round"/>
<path d="M15.08 17.64C14.95 17.56 14.79 17.52 14.64 17.52C14.49 17.52 14.34 17.56 14.21 17.64L8.55001 21.75C8.16001 22 8.09001 22.53 8.40001 22.9C9.10001 23.74 9.78001 24.37 10.93 25.02C12.08 25.67 12.96 25.92 14.05 26.08C14.09 26.08 14.14 26.08 14.18 26.08C14.6 26.08 14.95 25.77 14.96 25.35L15.54 18.38C15.54 18.05 15.35 17.78 15.09 17.63L15.08 17.64Z" stroke="black" stroke-width="1.5" stroke-linecap="round" stroke-linejoin="round"/>
</svg>
