<svg width="33" height="32" viewBox="0 0 33 32" fill="none" xmlns="http://www.w3.org/2000/svg">
<path d="M29.223 7.61288C28.7613 8.75802 28.691 10.0237 29.023 11.2129C29.823 15.3129 28.223 20.3129 24.423 24.1129C20.623 27.9129 15.723 29.5129 11.723 28.7129C10.4013 28.4638 9.04472 28.4638 7.72302 28.7129C7.11864 28.7991 6.50287 28.678 5.97619 28.3693C5.44951 28.0605 5.04298 27.5824 4.82299 27.0129C4.64268 26.5336 4.60792 26.0118 4.72302 25.5129C4.88875 24.0484 4.85508 22.5683 4.62298 21.1129C4.02298 17.2129 5.62299 12.5129 9.32299 8.9129C13.023 5.3129 18.123 3.5129 22.123 4.4129C23.3208 4.64829 24.5586 4.57952 25.723 4.21289C26.0256 4.03893 26.3768 3.96869 26.723 4.01288C27.4391 4.01288 28.1259 4.29736 28.6322 4.80371C29.1385 5.31006 29.423 5.9968 29.423 6.71289C29.4047 7.02163 29.3373 7.32547 29.223 7.61288Z" stroke="black" stroke-width="1.5" stroke-linecap="round" stroke-linejoin="round"/>
<path d="M14.123 25.0128C14.7857 25.0128 15.323 24.4755 15.323 23.8127C15.323 23.15 14.7857 22.6128 14.123 22.6128C13.4602 22.6128 12.923 23.15 12.923 23.8127C12.923 24.4755 13.4602 25.0128 14.123 25.0128Z" fill="black"/>
<path d="M19.423 23.8128C20.0857 23.8128 20.623 23.2756 20.623 22.6129C20.623 21.9501 20.0857 21.4128 19.423 21.4128C18.7602 21.4128 18.223 21.9501 18.223 22.6129C18.223 23.2756 18.7602 23.8128 19.423 23.8128Z" fill="black"/>
<path d="M22.523 19.913C23.1858 19.913 23.723 19.3757 23.723 18.713C23.723 18.0502 23.1858 17.5129 22.523 17.5129C21.8603 17.5129 21.323 18.0502 21.323 18.713C21.323 19.3757 21.8603 19.913 22.523 19.913Z" fill="black"/>
</svg>
