<svg width="33" height="32" viewBox="0 0 33 32" fill="none" xmlns="http://www.w3.org/2000/svg">
<path d="M30.8405 10.7662C30.8405 10.7662 30.8405 10.8608 30.827 10.9013C30.611 13.4667 24.2515 15.5325 16.4203 15.5325C8.58903 15.5325 2.22954 13.4667 2.0135 10.9013C2 10.8608 2 10.8068 2 10.7662C2 10.6987 2 10.6447 2.0135 10.5772C2.0135 10.5502 2.027 10.5232 2.027 10.4962C2.44557 7.98481 8.72405 6 16.4203 6C24.1165 6 30.3949 7.98481 30.8135 10.4962C30.8135 10.5232 30.8135 10.5502 30.8135 10.5772C30.827 10.6447 30.827 10.6987 30.827 10.7662H30.8405Z" stroke="black" stroke-width="1.5" stroke-linecap="round" stroke-linejoin="round"/>
<path d="M22.8338 10.7663C22.8338 10.7663 22.8338 10.8068 22.8338 10.8203C22.7392 11.968 19.9038 12.8861 16.4202 12.8861C12.9367 12.8861 10.1013 11.968 10.0067 10.8203C10.0067 10.8068 10.0067 10.7798 10.0067 10.7663C10.0067 10.7393 10.0067 10.7123 10.0067 10.6853C10.0067 10.6853 10.0067 10.6583 10.0067 10.6448C10.1958 9.52412 12.9907 8.64648 16.4067 8.64648C19.8228 8.64648 22.6312 9.52412 22.8067 10.6448C22.8067 10.6448 22.8067 10.6718 22.8067 10.6853C22.8067 10.7123 22.8067 10.7393 22.8067 10.7663H22.8338Z" stroke="black" stroke-width="1.5" stroke-linecap="round" stroke-linejoin="round"/>
<path d="M30.8405 11.3198C30.8405 19.2861 24.3865 25.7536 16.4203 25.7536C8.45401 25.7536 2 19.2861 2 11.3198C2 11.1848 2 11.0363 2.0135 10.9013V10.5772C2.0135 10.5772 2.027 10.5232 2.027 10.4962C2.44557 7.98481 8.72405 6 16.4203 6C24.1165 6 30.3949 7.98481 30.8135 10.4962C30.8135 10.5232 30.8135 10.5502 30.8135 10.5772V10.9013C30.827 11.0363 30.827 11.1848 30.827 11.3198H30.8405Z" stroke="black" stroke-width="1.5" stroke-linecap="round" stroke-linejoin="round"/>
</svg>
