<svg width="33" height="32" viewBox="0 0 33 32" fill="none" xmlns="http://www.w3.org/2000/svg">
<path d="M29.4276 14.0412C29.4276 14.8388 29.3324 15.6186 29.1479 16.3685H4.77975C4.59524 15.6186 4.5 14.8388 4.5 14.0412C4.5 7.94028 10.0831 3 16.9638 3C23.8445 3 29.4276 7.94028 29.4276 14.0412Z" stroke="black" stroke-width="1.5" stroke-linecap="round" stroke-linejoin="round"/>
<path d="M8.42762 10.9783C9.15538 9.53457 10.3058 8.29899 11.7373 7.39791M14.2479 6.26024C14.6311 6.14512 15.0249 6.05064 15.4276 5.97827" stroke="black" stroke-width="1.5" stroke-linecap="round" stroke-linejoin="round"/>
<path d="M14.6305 16.3687C14.6305 16.3687 15.9757 21.1601 11.4402 24.654C11.4402 24.654 11.8985 30.2788 17.4459 29.136C17.4459 29.136 22.2314 26.148 19.2196 16.3687" stroke="black" stroke-width="1.5" stroke-linecap="round" stroke-linejoin="round"/>
</svg>
