<svg width="33" height="32" viewBox="0 0 33 32" fill="none" xmlns="http://www.w3.org/2000/svg">
<path d="M15.9968 30C15.1671 30 14.4081 29.7 13.8099 29.2044C12.8194 28.3762 12.4657 27.0066 12.7358 25.7415C14.0158 19.7874 14.0672 12.255 14.0672 12.255L10.8255 12.7963C4.99825 13.8398 7.13364 17.2896 7.13364 17.2896C7.78969 16.2918 9.89935 16.3897 9.89935 16.3897C11.1085 16.3897 12.0862 17.3809 12.0862 18.607C12.0862 19.833 11.1085 20.8243 9.89935 20.8243C9.89935 20.8243 3.01722 21.2286 2.14248 15.0136C1.38352 9.65949 3.53177 4.26622 11.6102 2.47933C14.4982 1.84022 17.4954 1.84022 20.3833 2.47933C28.4682 4.26622 30.6165 9.65949 29.8575 15.0136C28.9828 21.2286 22.1007 20.8243 22.1007 20.8243C20.8915 20.8243 19.9138 19.833 19.9138 18.607C19.9138 17.3809 20.8915 16.3897 22.1007 16.3897C22.1007 16.3897 24.2103 16.2918 24.8664 17.2896C24.8664 17.2896 27.0018 13.8332 21.1745 12.7963L17.9328 12.255C17.9328 12.255 17.9842 19.7874 19.2642 25.7415C19.5343 27.0132 19.1806 28.3762 18.1901 29.2044C17.5983 29.7 16.8329 30 16.0032 30" stroke="black" stroke-width="1.5" stroke-linecap="round" stroke-linejoin="round"/>
</svg>
