<svg width="33" height="32" viewBox="0 0 33 32" fill="none" xmlns="http://www.w3.org/2000/svg">
<path d="M16.3 20.8492C16.3179 21.3215 16.3849 21.7907 16.5 22.2492C16.9193 23.6478 16.7758 25.1549 16.1 26.4492C15.5547 27.4345 14.7589 28.2585 13.7933 28.8379C12.8276 29.4173 11.7261 29.7317 10.6 29.7492C9.48652 29.7348 8.39744 29.4207 7.44724 28.8401C6.49704 28.2594 5.72077 27.4335 5.19999 26.4492C4.53775 25.1536 4.36042 23.664 4.69999 22.2492L5.00004 20.8492C6.20004 14.3492 6.20004 17.4492 5.00004 10.9492L4.69999 9.6492C4.46302 8.74671 4.43626 7.80188 4.62174 6.88742C4.80722 5.97296 5.19999 5.11325 5.76987 4.37442C6.33975 3.63559 7.07154 3.03734 7.90891 2.6257C8.74628 2.21406 9.66693 2 10.6 2C11.5331 2 12.4537 2.21406 13.2911 2.6257C14.1285 3.03734 14.8603 3.63559 15.4302 4.37442C16 5.11325 16.3928 5.97296 16.5783 6.88742C16.7638 7.80188 16.737 8.74671 16.5 9.6492C16.3851 10.0737 16.318 10.5098 16.3 10.9492C15.1 17.2492 15.1 14.6492 16.3 20.8492Z" stroke="black" stroke-width="1.5" stroke-linecap="round" stroke-linejoin="round"/>
<path d="M21.8 21.7493C23.2309 21.021 24.4917 19.9987 25.5001 18.7493C28.7001 15.2493 29.4 10.8493 27.3 8.9493C25.2 7.0493 22.4 8.1493 19.6 10.4493" stroke="black" stroke-width="1.5" stroke-linecap="round" stroke-linejoin="round"/>
<path d="M27.7 9.74927L20.2 16.2493" stroke="black" stroke-width="1.5" stroke-linecap="round" stroke-linejoin="round"/>
</svg>
