<svg width="33" height="32" viewBox="0 0 33 32" fill="none" xmlns="http://www.w3.org/2000/svg">
<path d="M10.8 28.9C14.8317 28.9 18.1 25.6317 18.1 21.6C18.1 17.5684 14.8317 14.3 10.8 14.3C6.76831 14.3 3.5 17.5684 3.5 21.6C3.5 25.6317 6.76831 28.9 10.8 28.9Z" stroke="black" stroke-width="1.5" stroke-linecap="round" stroke-linejoin="round"/>
<path d="M20.5 14.8C21.3302 14.4805 22.2105 14.3112 23.1 14.3C25.0361 14.3 26.8928 15.0692 28.2618 16.4382C29.6309 17.8072 30.4 19.664 30.4 21.6C30.4 23.5361 29.6309 25.3929 28.2618 26.7619C26.8928 28.1309 25.0361 28.9 23.1 28.9C22.2532 28.8721 21.4132 28.7377 20.6 28.5001" stroke="black" stroke-width="1.5" stroke-linecap="round" stroke-linejoin="round"/>
<path d="M9.69995 10.2C9.72624 8.28128 10.5069 6.45009 11.8731 5.10263C13.2393 3.75517 15.0811 2.99982 17 3C18.9096 3 20.7409 3.75856 22.0911 5.10883C23.4414 6.45909 24.2 8.29042 24.2 10.2" stroke="black" stroke-width="1.5" stroke-linecap="round" stroke-linejoin="round"/>
<path d="M9.69995 21.9001C10.7493 21.9001 11.6 21.0495 11.6 20.0001C11.6 18.9508 10.7493 18.1001 9.69995 18.1001C8.65061 18.1001 7.79999 18.9508 7.79999 20.0001C7.79999 21.0495 8.65061 21.9001 9.69995 21.9001Z" stroke="black" stroke-width="1.5" stroke-linecap="round" stroke-linejoin="round"/>
<path d="M24.6 23.8C25.6493 23.8 26.5 22.9493 26.5 21.9C26.5 20.8506 25.6493 20 24.6 20C23.5506 20 22.7 20.8506 22.7 21.9C22.7 22.9493 23.5506 23.8 24.6 23.8Z" stroke="black" stroke-width="1.5" stroke-linecap="round" stroke-linejoin="round"/>
<path d="M17 9.99997C18.0493 9.99997 18.9 9.14929 18.9 8.09995C18.9 7.0506 18.0493 6.19995 17 6.19995C15.9507 6.19995 15.1 7.0506 15.1 8.09995C15.1 9.14929 15.9507 9.99997 17 9.99997Z" stroke="black" stroke-width="1.5" stroke-linecap="round" stroke-linejoin="round"/>
</svg>
