<svg width="33" height="32" viewBox="0 0 33 32" fill="none" xmlns="http://www.w3.org/2000/svg">
<path d="M26.8678 16.9C26.8075 19.5916 25.7347 22.1614 23.8636 24.097C21.9924 26.0327 19.4603 27.1918 16.7724 27.3433C14.0844 27.4947 11.4382 26.6273 9.36143 24.9141C7.28469 23.2008 5.93006 20.7677 5.56779 18.1C5.33123 15.9985 5.71686 13.8738 6.6768 11.9895C7.63674 10.1052 9.12878 8.54411 10.9678 7.5C11.6421 7.12269 12.2023 6.57067 12.5894 5.90198C12.9765 5.23328 13.1764 4.47264 13.1678 3.70001V2H19.1678V3.59998C19.1812 4.38174 19.3894 5.14786 19.7735 5.82886C20.1577 6.50985 20.7057 7.08422 21.3678 7.5C23.0421 8.43099 24.4358 9.79439 25.4032 11.4479C26.3707 13.1014 26.8765 14.9843 26.8678 16.9Z" stroke="black" stroke-width="1.5" stroke-linecap="round" stroke-linejoin="round"/>
<path d="M16.1678 12.7V21.2" stroke="black" stroke-width="1.5" stroke-linecap="round" stroke-linejoin="round"/>
<path d="M10.8679 12.7C9.77207 15.4273 9.77207 18.4726 10.8679 21.2" stroke="black" stroke-width="1.5" stroke-linecap="round" stroke-linejoin="round"/>
<path d="M21.4678 12.7C22.5636 15.4273 22.5636 18.4726 21.4678 21.2" stroke="black" stroke-width="1.5" stroke-linecap="round" stroke-linejoin="round"/>
<path d="M16.1678 29.9001V27.6001" stroke="black" stroke-width="1.5" stroke-linecap="round" stroke-linejoin="round"/>
<path d="M16.1678 27.6001L18.3679 29.2001" stroke="black" stroke-width="1.5" stroke-linecap="round" stroke-linejoin="round"/>
<path d="M16.1678 27.6001L14.0678 29.2001" stroke="black" stroke-width="1.5" stroke-linecap="round" stroke-linejoin="round"/>
</svg>
