<svg width="33" height="32" viewBox="0 0 33 32" fill="none" xmlns="http://www.w3.org/2000/svg">
<path d="M14.9112 22.2894L9.4717 27.729C8.16936 29.0313 6.06745 29.0252 4.77117 27.729C3.47489 26.4327 3.46884 24.3308 4.77117 23.0284L10.2107 17.5889C11.507 16.2926 13.6149 16.2926 14.9112 17.5889C14.9779 17.6555 15.0445 17.7282 15.1051 17.807C15.626 18.4248 15.8865 19.1881 15.8865 19.9392C15.8865 20.7933 15.5594 21.6413 14.9112 22.2894Z" stroke="black" stroke-width="1.5" stroke-linecap="round" stroke-linejoin="round"/>
<path d="M1.5002 27.3049H4.40168" stroke="black" stroke-width="1.5" stroke-linecap="round" stroke-linejoin="round"/>
<path d="M5.19524 30.9998V28.0923" stroke="black" stroke-width="1.5" stroke-linecap="round" stroke-linejoin="round"/>
<path d="M4.76513 27.729L3.14175 29.3524" stroke="black" stroke-width="1.5" stroke-linecap="round" stroke-linejoin="round"/>
<path d="M17.8067 9.52054C14.142 13.2519 10.2047 17.5829 10.2047 17.5829L7.63028 20.1573C10.8286 16.959 13.6513 12.0283 15.6502 7.96985C17.5583 4.09918 18.7153 1.02203 18.7153 1.02203C19.9692 0.89483 21.2715 1.31885 22.2346 2.28197C22.8404 2.88771 23.228 3.62065 23.4037 4.39599C22.4042 4.98962 20.163 7.12787 17.8127 9.52659L17.8067 9.52054Z" stroke="black" stroke-width="1.5" stroke-linecap="round" stroke-linejoin="round"/>
<path d="M7.48489 20.3087L7.63027 20.1633" stroke="black" stroke-width="1.5" stroke-linecap="round" stroke-linejoin="round"/>
<path d="M23.4037 4.38991L26.1174 4.1355L25.863 6.85526C24.7909 8.67247 18.6184 14.5421 15.099 17.807" stroke="black" stroke-width="1.5" stroke-linecap="round" stroke-linejoin="round"/>
<path d="M22.9797 14.6876C19.2483 18.3523 14.9173 22.2896 14.9173 22.2896L12.3429 24.864C15.5412 21.6657 20.4719 18.843 24.5304 16.844C28.401 14.9359 31.4842 13.779 31.4842 13.779C31.6114 12.5251 31.1874 11.2228 30.2243 10.2597C29.6186 9.65391 28.8856 9.26624 28.1103 9.09058C27.5166 10.09 25.3784 12.3313 22.9797 14.6815V14.6876Z" stroke="black" stroke-width="1.5" stroke-linecap="round" stroke-linejoin="round"/>
<path d="M25.8994 6.4979L28.3647 6.38281L28.1103 9.09652" stroke="black" stroke-width="1.5" stroke-linecap="round" stroke-linejoin="round"/>
</svg>
