<svg width="33" height="32" viewBox="0 0 33 32" fill="none" xmlns="http://www.w3.org/2000/svg">
<path d="M16.9109 31C23.2129 31 28.3217 25.8911 28.3217 19.5891C28.3217 13.287 23.2129 8.17822 16.9109 8.17822C10.6088 8.17822 5.5 13.287 5.5 19.5891C5.5 25.8911 10.6088 31 16.9109 31Z" stroke="black" stroke-width="1.5" stroke-linecap="round" stroke-linejoin="round"/>
<path d="M28.3146 19.5891C28.3146 25.888 23.2097 31 16.9109 31C10.612 31 5.5 25.888 5.5 19.5891C5.5 14.9561 8.25977 10.9666 12.2278 9.18633C13.6578 8.53571 15.245 8.17822 16.9109 8.17822C17.4256 8.17822 17.9404 8.21397 18.4337 8.27832C20.0353 8.49281 21.5367 9.04333 22.8522 9.8441C26.1268 11.8532 28.3146 15.4709 28.3146 19.5891Z" stroke="black" stroke-width="1.5" stroke-linecap="round" stroke-linejoin="round"/>
<path d="M25.5405 17.7588C25.6621 18.3522 25.7336 18.9599 25.7336 19.5891C25.7336 20.8617 25.4619 22.0629 24.9828 23.1568" stroke="black" stroke-width="1.5" stroke-linecap="round" stroke-linejoin="round"/>
<path d="M23.5601 13.7908C24.0462 14.3484 24.4609 14.9633 24.797 15.6354" stroke="black" stroke-width="1.5" stroke-linecap="round" stroke-linejoin="round"/>
<path d="M15.8313 18.5095L17.9905 20.6687" stroke="black" stroke-width="1.5" stroke-linecap="round" stroke-linejoin="round"/>
<path d="M17.9905 18.5095L15.8313 20.6687" stroke="black" stroke-width="1.5" stroke-linecap="round" stroke-linejoin="round"/>
<path d="M18.4338 8.27836L25.7121 1C25.9409 1.74357 26.0625 2.54433 26.0625 3.36654C26.0625 6.00477 24.8041 8.35701 22.8523 9.84414" stroke="black" stroke-width="1.5" stroke-linecap="round" stroke-linejoin="round"/>
</svg>
