<svg width="32" height="32" viewBox="0 0 32 32" fill="none" xmlns="http://www.w3.org/2000/svg">
<path d="M7.08299 17.9991L20.9281 4.15397C21.9851 3.09699 23.6989 3.09699 24.7559 4.15397L25.8737 5.27185C28.5923 7.99042 28.5923 12.401 25.8737 15.1196L12.0286 28.9647C10.9716 30.0217 9.25785 30.0217 8.20087 28.9647L7.08299 27.8468C4.36442 25.1283 4.36442 20.7177 7.08299 17.9991Z" stroke="black" stroke-width="1.5" stroke-linecap="round" stroke-linejoin="round"/>
<path d="M12.6071 23.1926C13.3686 22.4311 13.3686 21.1964 12.6071 20.4349C11.8456 19.6733 10.6109 19.6733 9.84941 20.4349C9.08789 21.1964 9.08789 22.4311 9.84941 23.1926C10.6109 23.9541 11.8456 23.9541 12.6071 23.1926Z" stroke="black" stroke-width="1.5" stroke-linecap="round" stroke-linejoin="round"/>
<path d="M17.8616 17.9382C18.6231 17.1767 18.6231 15.942 17.8616 15.1805C17.1001 14.4189 15.8654 14.4189 15.1039 15.1805C14.3423 15.942 14.3423 17.1767 15.1039 17.9382C15.8654 18.6997 17.1001 18.6997 17.8616 17.9382Z" stroke="black" stroke-width="1.5" stroke-linecap="round" stroke-linejoin="round"/>
<path d="M23.116 12.6838C23.8776 11.9223 23.8776 10.6876 23.116 9.92607C22.3545 9.16455 21.1198 9.16455 20.3583 9.92607C19.5968 10.6876 19.5968 11.9223 20.3583 12.6838C21.1198 13.4453 22.3545 13.4453 23.116 12.6838Z" stroke="black" stroke-width="1.5" stroke-linecap="round" stroke-linejoin="round"/>
</svg>
