<svg width="33" height="32" viewBox="0 0 33 32" fill="none" xmlns="http://www.w3.org/2000/svg">
<path d="M10.9394 12.449C10.9394 9.5697 13.2723 7.23682 16.1516 7.23682C19.0308 7.23682 21.3637 9.5697 21.3637 12.449" stroke="black" stroke-width="1.5" stroke-linecap="round" stroke-linejoin="round"/>
<path d="M20.67 24.4817C20.67 26.9803 18.6441 29.0001 16.1516 29.0001C13.6591 29.0001 11.6332 26.9742 11.6332 24.4817" stroke="black" stroke-width="1.5" stroke-linecap="round" stroke-linejoin="round"/>
<path d="M11.1543 10.9631C10.5465 9.88262 9.38625 9.1582 8.06019 9.1582C6.09566 9.1582 4.50562 10.7482 4.50562 12.7128C4.50562 12.7128 4.2355 22.0688 7.44014 26.8206C8.71094 28.7053 11.2894 29.1596 13.1496 27.8581" stroke="black" stroke-width="1.5" stroke-linecap="round" stroke-linejoin="round"/>
<path d="M21.155 10.9816C21.7628 9.90111 22.9354 9.146 24.2676 9.146C26.2321 9.146 27.8221 10.736 27.8221 12.7006C27.8221 12.7006 28.0923 22.0566 24.8876 26.8083C23.6168 28.6931 21.0384 29.1474 19.1782 27.8459" stroke="black" stroke-width="1.5" stroke-linecap="round" stroke-linejoin="round"/>
<path d="M24.243 9.15825C16.5936 9.8397 18.0179 2 18.0179 2H16.1516H14.2853C14.2853 2 15.7096 9.8397 8.06018 9.15825" stroke="black" stroke-width="1.5" stroke-linecap="round" stroke-linejoin="round"/>
</svg>
