<svg width="32" height="32" viewBox="0 0 32 32" fill="none" xmlns="http://www.w3.org/2000/svg">
<path d="M26 13.5311V18.8264C26 21.44 25.0496 23.8331 23.4627 25.683C21.5364 27.9318 18.6597 29.3659 15.4605 29.3659H8.84145C7.82314 29.3659 7 28.5428 7 27.5244C7 27.0153 7.21215 26.5486 7.53461 26.2176C7.87405 25.8867 8.33229 25.683 8.84145 25.683H10.3859C13.1862 25.683 15.4605 23.4088 15.4605 20.6084V13.7348C15.4605 10.9429 17.548 8.47352 20.3399 8.27835C21.9437 8.15954 23.4118 8.77053 24.4556 9.80581C25.406 10.7562 26 12.0716 26 13.5311Z" stroke="black" stroke-width="1.5" stroke-linecap="round" stroke-linejoin="round"/>
<path d="M20.3398 8.27825V5.42698C20.3398 4.0862 21.426 3 22.7668 3H24.5913" stroke="black" stroke-width="1.5" stroke-linecap="round" stroke-linejoin="round"/>
</svg>
