<svg width="33" height="33" viewBox="0 0 33 33" fill="none" xmlns="http://www.w3.org/2000/svg">
<path d="M26.9135 19.831C26.9135 26.2535 25.3782 32 16.9492 32C8.52023 32 7 26.2535 7 19.831C7 13.4085 11.4553 7.54932 16.9643 7.54932C22.4732 7.54932 26.9286 13.4085 26.9286 19.831H26.9135Z" stroke="black" stroke-width="1.5" stroke-linecap="round" stroke-linejoin="round"/>
<path d="M22.684 9.88732C22.684 9.88732 21.4648 5.69014 26.2663 3.16901C26.2663 3.16901 22.6539 1.04225 19.9596 4.05634C19.9596 4.05634 19.1769 1.49296 16.9492 1C14.7216 1.49296 13.9389 4.05634 13.9389 4.05634C11.2596 1.04225 7.64722 3.16901 7.64722 3.16901C12.4487 5.69014 11.2295 9.88732 11.2295 9.88732" stroke="black" stroke-width="1.5" stroke-linecap="round" stroke-linejoin="round"/>
<path d="M14.8419 11.5212L23.5569 19.6621" stroke="black" stroke-width="1.5" stroke-linecap="round" stroke-linejoin="round"/>
<path d="M11.4403 14.7043L22.0367 24.6198" stroke="black" stroke-width="1.5" stroke-linecap="round" stroke-linejoin="round"/>
<path d="M10.3716 19.6621L19.0715 27.9015" stroke="black" stroke-width="1.5" stroke-linecap="round" stroke-linejoin="round"/>
<path d="M19.0715 11.5212L10.3716 19.6621" stroke="black" stroke-width="1.5" stroke-linecap="round" stroke-linejoin="round"/>
<path d="M22.4883 14.7043L11.8918 24.6198" stroke="black" stroke-width="1.5" stroke-linecap="round" stroke-linejoin="round"/>
<path d="M23.5569 19.6621L14.8419 27.9015" stroke="black" stroke-width="1.5" stroke-linecap="round" stroke-linejoin="round"/>
</svg>
