<svg width="33" height="32" viewBox="0 0 33 32" fill="none" xmlns="http://www.w3.org/2000/svg">
<path d="M19.17 11.4085C19.17 11.4085 16.49 10.9385 15.47 11.8785C14.45 12.8185 13.77 14.2585 10.11 14.8185C6.45 15.3785 3 16.8585 3 21.3685C3 25.8785 3.51 30.0485 8.96 30.0085C14.41 29.9685 14.75 26.0985 17.73 25.4085C20.71 24.7185 24.88 24.1285 24.67 20.7685C24.46 17.4085 23.52 14.1285 22.33 13.2785" stroke="black" stroke-width="1.5" stroke-linecap="round" stroke-linejoin="round"/>
<path d="M16.49 8.85853C16.49 8.85853 19.48 1.32853 24.67 2.04853C29.86 2.76853 30.83 7.74853 30.83 7.74853C30.83 7.74853 32.02 12.0085 26.57 15.7085" stroke="black" stroke-width="1.5" stroke-linecap="round" stroke-linejoin="round"/>
<path d="M7.29002 19.6086C7.29002 19.6086 7.10002 21.0686 7.77002 21.5886" stroke="black" stroke-width="1.5" stroke-linecap="round" stroke-linejoin="round"/>
<path d="M12.28 18.5286C12.28 18.5286 12.45 19.9986 13.23 20.3286" stroke="black" stroke-width="1.5" stroke-linecap="round" stroke-linejoin="round"/>
<path d="M17.4 20.7886C17.4 20.7886 17.11 21.8086 17.78 22.0986" stroke="black" stroke-width="1.5" stroke-linecap="round" stroke-linejoin="round"/>
<path d="M17.95 15.8486C17.95 15.8486 17.79 16.9986 18.49 17.3486" stroke="black" stroke-width="1.5" stroke-linecap="round" stroke-linejoin="round"/>
<path d="M10.61 24.1785C10.61 24.1785 10.9 25.2685 11.47 25.5785" stroke="black" stroke-width="1.5" stroke-linecap="round" stroke-linejoin="round"/>
<path d="M22.98 4.89844C22.98 4.89844 23.98 5.12844 24.11 5.59844" stroke="black" stroke-width="1.5" stroke-linecap="round" stroke-linejoin="round"/>
<path d="M21.89 8.37842C21.89 8.37842 22.81 8.46842 23.19 9.12842" stroke="black" stroke-width="1.5" stroke-linecap="round" stroke-linejoin="round"/>
<path d="M25.68 8.00854C25.74 8.00854 26.91 8.72854 27 9.09854" stroke="black" stroke-width="1.5" stroke-linecap="round" stroke-linejoin="round"/>
<path d="M24.96 12.1584C24.96 12.1584 25.68 12.7884 25.68 12.9984" stroke="black" stroke-width="1.5" stroke-linecap="round" stroke-linejoin="round"/>
</svg>
