<svg width="33" height="32" viewBox="0 0 33 32" fill="none" xmlns="http://www.w3.org/2000/svg">
<path d="M18.8067 27.0599C25.817 25.7884 30.6019 19.8059 29.494 13.6976C28.3862 7.58933 21.8051 3.6683 14.7948 4.93976C7.78449 6.21122 2.99962 12.1937 4.10748 18.302C5.21535 24.4103 11.7964 28.3313 18.8067 27.0599Z" stroke="black" stroke-width="1.5" stroke-linecap="round" stroke-linejoin="round"/>
<path d="M17.5083 22.4317C16.3434 22.8394 15.0694 22.2279 14.6617 21.0631C14.2541 19.8983 14.8656 18.6242 16.0304 18.2166" stroke="black" stroke-width="1.5" stroke-linecap="round" stroke-linejoin="round"/>
<path d="M15.2878 14.1107C14.123 14.5184 12.849 13.9069 12.4413 12.742C12.0336 11.5772 12.6452 10.3032 13.81 9.89551" stroke="black" stroke-width="1.5" stroke-linecap="round" stroke-linejoin="round"/>
<path d="M24.0458 16.2801C22.881 16.6878 21.607 16.0763 21.1993 14.9115C20.7916 13.7466 21.4031 12.4726 22.5679 12.0649" stroke="black" stroke-width="1.5" stroke-linecap="round" stroke-linejoin="round"/>
</svg>
