<svg width="33" height="32" viewBox="0 0 33 32" fill="none" xmlns="http://www.w3.org/2000/svg">
<path d="M17.7541 28H23.3394C26.6606 28 29.6915 25.9356 30.7305 22.7822C31.1252 21.5889 31.343 20.2868 31.343 18.9211C31.343 14.5291 29.0971 10.7722 25.912 9.23413C24.9138 8.74865 23.8249 8.48096 22.686 8.48096C22.1461 8.48096 21.6152 8.53994 21.1025 8.66245" stroke="black" stroke-width="1.5" stroke-linecap="round" stroke-linejoin="round"/>
<path d="M12.6089 8.63068C12.137 8.53087 11.6515 8.48096 11.157 8.48096C10.0181 8.48096 8.92922 8.74865 7.93103 9.23413C4.74592 10.7722 2.5 14.5291 2.5 18.9211C2.5 20.1552 2.67695 21.3439 3.00363 22.4419C3.9882 25.7496 7.05989 28 10.5127 28H15.9029" stroke="black" stroke-width="1.5" stroke-linecap="round" stroke-linejoin="round"/>
<path d="M25.49 18.3176C25.49 20.0599 25.177 21.7114 24.6189 23.1815C23.5073 26.0989 20.7713 28 17.7541 28H15.9029C13.0127 28 10.3267 26.2713 9.17877 23.5082C8.53902 21.9565 8.17605 20.1915 8.17605 18.3176C8.17605 14.157 9.96371 10.5318 12.6089 8.63068C12.677 8.58078 12.7496 8.53087 12.8221 8.48096H20.8439C20.9301 8.53994 21.0163 8.59892 21.1025 8.66245C23.7251 10.5681 25.49 14.1751 25.49 18.3176Z" stroke="black" stroke-width="1.5" stroke-linecap="round" stroke-linejoin="round"/>
<path d="M20.8439 8.48094C17.5091 6.16243 18.5436 3 18.5436 3H16.833H15.1225C15.1225 3 16.157 6.16697 12.8221 8.48094" stroke="black" stroke-width="1.5" stroke-linecap="round" stroke-linejoin="round"/>
</svg>
