<svg width="33" height="32" viewBox="0 0 33 32" fill="none" xmlns="http://www.w3.org/2000/svg">
<path d="M24.9658 23.3401C25.0292 25.7667 23.8761 27.0972 22.4378 27.9652C20.176 29.321 17.2045 29.5175 17.2045 31C17.2045 29.5175 14.233 29.321 11.9712 27.9652C10.533 27.0972 9.37351 25.7667 9.43687 23.3401C9.6016 17.0867 17.2045 17.4098 17.2045 17.4098C17.2045 17.4098 24.8074 17.0867 24.9658 23.3401Z" stroke="black" stroke-width="1.5" stroke-linecap="round" stroke-linejoin="round"/>
<path d="M11.9712 27.9652C13.1433 26.8248 15.0503 26.0898 17.2045 26.0898C19.3586 26.0898 21.2657 26.8248 22.4378 27.9652" stroke="black" stroke-width="1.5" stroke-linecap="round" stroke-linejoin="round"/>
<path d="M10.6216 6.08789C10.6216 6.08789 17.5783 10.0224 17.1981 17.4099C17.1981 17.4099 16.818 11.3719 22.8623 9.26844" stroke="black" stroke-width="1.5" stroke-linecap="round" stroke-linejoin="round"/>
<path d="M14.8937 10.3937C16.4377 8.84974 15.9884 5.89722 13.8902 3.79904C11.792 1.70086 8.8395 1.25157 7.29556 2.79551C5.75161 4.33945 6.20091 7.29197 8.29909 9.39015C10.3973 11.4883 13.3498 11.9376 14.8937 10.3937Z" stroke="black" stroke-width="1.5" stroke-linecap="round" stroke-linejoin="round"/>
<path d="M24.1717 11.716C25.9739 10.4343 26.6572 8.30191 25.698 6.95313C24.7388 5.60435 22.5002 5.54996 20.698 6.83165C18.8959 8.11333 18.2125 10.2457 19.1718 11.5945C20.131 12.9433 22.3696 12.9977 24.1717 11.716Z" stroke="black" stroke-width="1.5" stroke-linecap="round" stroke-linejoin="round"/>
</svg>
