<svg width="33" height="32" viewBox="0 0 33 32" fill="none" xmlns="http://www.w3.org/2000/svg">
<path d="M22.8015 10L24.7015 5.70001L19.4015 7.59998L16.3015 3L13.1015 7.59998L7.90152 5.70001L9.80151 10" stroke="black" stroke-width="1.5" stroke-linecap="round" stroke-linejoin="round"/>
<path d="M16.2015 16.3999V17.7999" stroke="black" stroke-width="1.5" stroke-linecap="round" stroke-linejoin="round"/>
<path d="M11.1015 15.2V16.7" stroke="black" stroke-width="1.5" stroke-linecap="round" stroke-linejoin="round"/>
<path d="M21.3015 15.2V16.7" stroke="black" stroke-width="1.5" stroke-linecap="round" stroke-linejoin="round"/>
<path d="M18.8015 20.3999V21.8999" stroke="black" stroke-width="1.5" stroke-linecap="round" stroke-linejoin="round"/>
<path d="M13.5015 20.3999V21.8999" stroke="black" stroke-width="1.5" stroke-linecap="round" stroke-linejoin="round"/>
<path d="M13.9015 28.4C14.1923 28.7557 14.5584 29.0422 14.9735 29.239C15.3885 29.4358 15.8422 29.5378 16.3015 29.5378C16.7609 29.5378 17.2145 29.4358 17.6295 29.239C18.0446 29.0422 18.4108 28.7557 18.7015 28.4L24.5015 21.8C25.849 20.2447 26.5941 18.2578 26.6015 16.2C26.6148 15.3989 26.4701 14.6031 26.1757 13.8579C25.8813 13.1128 25.443 12.4329 24.8858 11.8571C24.3287 11.2814 23.6635 10.821 22.9284 10.5024C22.1933 10.1837 21.4026 10.013 20.6015 10H12.0015C11.2004 10.013 10.4097 10.1837 9.67462 10.5024C8.93951 10.821 8.27439 11.2814 7.71722 11.8571C7.16005 12.4329 6.72174 13.1128 6.42736 13.8579C6.13298 14.6031 5.98828 15.3989 6.00152 16.2C5.96151 18.2662 6.71278 20.2696 8.10153 21.8L13.9015 28.4Z" stroke="black" stroke-width="1.5" stroke-linecap="round" stroke-linejoin="round"/>
</svg>
