<svg width="33" height="32" viewBox="0 0 33 32" fill="none" xmlns="http://www.w3.org/2000/svg">
<path d="M29 18.1004C29 24.9581 23.4401 30.518 16.5676 30.518C9.69516 30.518 4.14999 24.9581 4.14999 18.1004C4.14999 13.4106 6.7456 9.32548 10.58 7.21655L12.0695 8.01293L11.0077 11.4049L16.5676 9.81216L22.1423 11.4049L21.0804 8.01293L22.57 7.21655C26.4044 9.32548 29 13.4106 29 18.1004Z" stroke="black" stroke-width="1.5" stroke-linecap="round" stroke-linejoin="round"/>
<path d="M22.57 7.21661L21.0805 8.01299L22.1423 11.405L16.5676 9.81222L11.0077 11.405L12.0696 8.01299L10.58 7.21661L7.5715 5.6091L13.7951 5.12242L16.5676 2.02539L19.355 5.12242L25.5785 5.6091L22.57 7.21661Z" stroke="black" stroke-width="1.5" stroke-linecap="round" stroke-linejoin="round"/>
</svg>
