<svg width="33" height="32" viewBox="0 0 33 32" fill="none" xmlns="http://www.w3.org/2000/svg">
<path d="M28.68 18.2994C28.68 23.9867 24.6601 28.7563 19.2959 29.8679C18.9469 29.9455 18.6108 30.0747 18.3265 30.2815C17.4346 30.9149 16.2454 30.9149 15.3535 30.2815C15.0562 30.0747 14.7331 29.9455 14.3841 29.8679C9.01991 28.7434 5 23.9867 5 18.2994C5 15.3135 6.09869 12.5862 7.92122 10.5051H11.4112L13.88 12.9998L16.84 10.5051L19.8 12.9998L22.2688 10.5051H25.7588C27.5813 12.5862 28.68 15.3135 28.68 18.2994Z" stroke="black" stroke-width="1.5" stroke-linecap="round" stroke-linejoin="round"/>
<path d="M25.7459 10.5052H22.2688L19.8 12.9999L16.84 10.5052L13.88 12.9999L11.4112 10.5052H7.93417C10.0928 8.02349 13.2854 6.45947 16.84 6.45947C20.3946 6.45947 23.5873 8.02349 25.7459 10.5052Z" stroke="black" stroke-width="1.5" stroke-linecap="round" stroke-linejoin="round"/>
<path d="M14.4745 2C14.4745 2 17.4345 3.6545 16.8529 6.45939" stroke="black" stroke-width="1.5" stroke-linecap="round" stroke-linejoin="round"/>
</svg>
