<svg width="32" height="32" viewBox="0 0 32 32" fill="none" xmlns="http://www.w3.org/2000/svg">
<path d="M20.133 13.3928L18.229 11.4888L2.40545 27.3123L4.30946 29.2163L20.133 13.3928Z" stroke="black" stroke-width="1.5" stroke-linecap="round" stroke-linejoin="round"/>
<path d="M24.4311 12.4408C22.9833 13.8885 20.6287 13.8885 19.181 12.4408C17.7333 10.9931 17.7333 8.63844 19.181 7.19072C20.6287 5.743 27.811 3.81084 27.811 3.81084C27.811 3.81084 25.8788 10.9931 24.4311 12.4408Z" stroke="black" stroke-width="1.5" stroke-linecap="round" stroke-linejoin="round"/>
<path d="M15.2434 10.7566L15.2434 14.4745" stroke="black" stroke-width="1.5" stroke-linecap="round" stroke-linejoin="round"/>
<path d="M12.0325 13.9675L12.0268 17.691" stroke="black" stroke-width="1.5" stroke-linecap="round" stroke-linejoin="round"/>
<path d="M8.46109 17.5388L8.46109 21.2567" stroke="black" stroke-width="1.5" stroke-linecap="round" stroke-linejoin="round"/>
<path d="M5.05304 20.947L5.05304 24.6649" stroke="black" stroke-width="1.5" stroke-linecap="round" stroke-linejoin="round"/>
<path d="M19.5865 17.6685L15.863 17.6629" stroke="black" stroke-width="1.5" stroke-linecap="round" stroke-linejoin="round"/>
<path d="M16.1898 21.0653L12.4663 21.0596" stroke="black" stroke-width="1.5" stroke-linecap="round" stroke-linejoin="round"/>
<path d="M12.793 24.4621L9.06947 24.4565" stroke="black" stroke-width="1.5" stroke-linecap="round" stroke-linejoin="round"/>
<path d="M9.39623 27.8588L5.67272 27.8532" stroke="black" stroke-width="1.5" stroke-linecap="round" stroke-linejoin="round"/>
</svg>
