<svg width="33" height="32" viewBox="0 0 33 32" fill="none" xmlns="http://www.w3.org/2000/svg">
<path d="M29.7 14C29.702 17.0379 28.7937 20.0066 27.0922 22.5233C25.3908 25.0399 22.9743 26.9891 20.1544 28.1191C17.3346 29.2492 14.2408 29.5084 11.2723 28.8633C8.30369 28.2182 5.59652 26.6984 3.5 24.5L6.39999 21.6L22.2 5.89996L25 3C26.5009 4.40932 27.6934 6.11437 28.5023 8.00763C29.3113 9.90089 29.7191 11.9413 29.7 14Z" stroke="black" stroke-width="1.5" stroke-linecap="round" stroke-linejoin="round"/>
<path d="M25.7 13.9999C25.6736 16.953 24.482 19.7761 22.3845 21.8549C20.2869 23.9337 17.4532 25.1 14.5 25.0999C12.9805 25.1134 11.4749 24.8089 10.08 24.2062C8.68507 23.6034 7.43158 22.7157 6.39999 21.5999L22.2 5.8999C23.3015 6.94269 24.1797 8.19834 24.7813 9.5907C25.3829 10.9831 25.6955 12.4832 25.7 13.9999Z" stroke="black" stroke-width="1.5" stroke-linecap="round" stroke-linejoin="round"/>
<path d="M14.1 19.8L13.1 20.8" stroke="black" stroke-width="1.5" stroke-linecap="round" stroke-linejoin="round"/>
<path d="M21.3 12.6001L20.3 13.6001" stroke="black" stroke-width="1.5" stroke-linecap="round" stroke-linejoin="round"/>
<path d="M19.5 18.9001L18.5 17.9001" stroke="black" stroke-width="1.5" stroke-linecap="round" stroke-linejoin="round"/>
</svg>
