<svg width="33" height="34" viewBox="0 0 33 34" fill="none" xmlns="http://www.w3.org/2000/svg">
<path d="M26.6726 5.28405C26.6726 5.28405 19.6207 6.00623 20.3019 2.93901C20.7255 1.02402 23.7987 1.29991 23.5163 3.47455C23.2837 5.28405 18.1506 8.7651 18.1506 8.7651C18.2918 3.7829 14.8281 1.55957 14.8281 1.55957L13.0921 3.25547C16.4478 5.706 15.6753 8.49733 15.6753 8.49733L15.5507 8.7651" stroke="black" stroke-width="1.5" stroke-linecap="round" stroke-linejoin="round"/>
<path d="M20.1523 8.75708H12.7184C8.10807 8.75708 4.3707 12.4082 4.3707 16.912V24.1743C4.3707 28.6782 8.10807 32.3292 12.7184 32.3292H20.1523C24.7626 32.3292 28.5 28.6782 28.5 24.1743V16.912C28.5 12.4082 24.7626 8.75708 20.1523 8.75708Z" stroke="black" stroke-width="1.5" stroke-linecap="round" stroke-linejoin="round"/>
<path d="M13.0423 8.75708C13.0423 10.2258 11.3811 10.2258 11.3811 11.7026C11.3811 13.1794 13.0423 13.1713 13.0423 14.6481C13.0423 16.1249 11.3811 16.1168 11.3811 17.5936C11.3811 19.0704 13.0423 19.0623 13.0423 20.5391C13.0423 22.0159 11.3811 22.0078 11.3811 23.4846C11.3811 24.9614 13.0423 24.9533 13.0423 26.4301C13.0423 27.9069 11.3811 27.9069 11.3811 29.3837C11.3811 30.8605 13.0423 30.8605 13.0423 32.3373" stroke="black" stroke-width="1.5" stroke-linecap="round" stroke-linejoin="round"/>
<path d="M19.8284 8.75708C19.8284 10.2258 21.4896 10.2258 21.4896 11.7026C21.4896 13.1794 19.8284 13.1713 19.8284 14.6481C19.8284 16.1249 21.4896 16.1168 21.4896 17.5936C21.4896 19.0704 19.8284 19.0623 19.8284 20.5391C19.8284 22.0159 21.4896 22.0078 21.4896 23.4846C21.4896 24.9614 19.8284 24.9533 19.8284 26.4301C19.8284 27.9069 21.4896 27.9069 21.4896 29.3837C21.4896 30.8605 19.8284 30.8605 19.8284 32.3373" stroke="black" stroke-width="1.5" stroke-linecap="round" stroke-linejoin="round"/>
</svg>
