<svg width="32" height="32" viewBox="0 0 32 32" fill="none" xmlns="http://www.w3.org/2000/svg">
<path d="M10.0744 12.2363C12.7182 14.8801 12.7182 19.162 10.0744 21.8058C7.43058 19.162 7.43058 14.8801 10.0744 12.2363Z" stroke="black" stroke-width="1.5" stroke-linecap="round" stroke-linejoin="round"/>
<path d="M13.6325 8.67822C16.2762 11.322 16.2762 15.6039 13.6325 18.2477C10.9887 15.6039 10.9887 11.322 13.6325 8.67822Z" stroke="black" stroke-width="1.5" stroke-linecap="round" stroke-linejoin="round"/>
<path d="M17.1829 5.12769C19.8267 7.77148 19.8267 12.0534 17.1829 14.6972C14.5391 12.0534 14.5391 7.77148 17.1829 5.12769Z" stroke="black" stroke-width="1.5" stroke-linecap="round" stroke-linejoin="round"/>
<path d="M10.0591 21.7753C12.7029 19.1315 16.9848 19.1315 19.6286 21.7753C16.9848 24.4191 12.7029 24.4191 10.0591 21.7753Z" stroke="black" stroke-width="1.5" stroke-linecap="round" stroke-linejoin="round"/>
<path d="M13.6019 18.2325C16.2457 15.5887 20.5276 15.5887 23.1714 18.2325C20.5276 20.8763 16.2457 20.8763 13.6019 18.2325Z" stroke="black" stroke-width="1.5" stroke-linecap="round" stroke-linejoin="round"/>
<path d="M26.7295 14.6743C24.0857 17.3181 19.8114 17.3257 17.16 14.6896L17.32 14.5296C18.021 13.8591 18.8362 13.3791 19.6971 13.082C20.421 12.8153 21.1829 12.6934 21.9448 12.6934C21.9905 12.6934 22.0362 12.6934 22.0743 12.701C23.7657 12.7315 25.4343 13.3791 26.7295 14.6743Z" stroke="black" stroke-width="1.5" stroke-linecap="round" stroke-linejoin="round"/>
<path d="M17.3197 14.5293L17.1597 14.6893L17.1524 14.682C17.2058 14.6286 17.2591 14.5753 17.3197 14.5293Z" stroke="black" stroke-width="1.5" stroke-linecap="round" stroke-linejoin="round"/>
<path d="M25.6014 6.26538C25.6014 10.0043 22.5737 13.032 18.8348 13.032C18.8348 9.29313 21.8625 6.26538 25.6014 6.26538Z" stroke="black" stroke-width="1.5" stroke-linecap="round" stroke-linejoin="round"/>
<path d="M28.8095 7.80959C27.08 10.8343 24.2838 12.1372 22.0743 12.701" stroke="black" stroke-width="1.5" stroke-linecap="round" stroke-linejoin="round"/>
<path d="M5.16006 26.6894L17.16 14.6895" stroke="black" stroke-width="1.5" stroke-linecap="round" stroke-linejoin="round"/>
<path d="M19.8191 9.50088C20.2305 7.27613 20.3981 4.33519 19.2705 1.72949" stroke="black" stroke-width="1.5" stroke-linecap="round" stroke-linejoin="round"/>
</svg>
