<svg width="33" height="32" viewBox="0 0 33 32" fill="none" xmlns="http://www.w3.org/2000/svg">
<path d="M15.2023 26.5878C12.062 29.8074 6.98662 29.8007 3.85281 26.5878C0.71899 23.3749 0.712475 18.1648 3.85281 14.9519C6.10707 12.6407 9.3777 11.9928 12.1988 13.0081L18.1407 6.91623C19.4893 5.53354 21.6849 5.52686 23.0401 6.91623C23.7177 7.61092 24.0565 8.51935 24.0565 9.42778C24.0565 10.3362 23.7177 11.2513 23.0401 11.9393L17.0982 18.0312C18.0951 20.9235 17.4631 24.27 15.2023 26.5878Z" stroke="black" stroke-width="1.5" stroke-linecap="round" stroke-linejoin="round"/>
<path d="M3.85281 26.5879L3.18175 27.2759" stroke="black" stroke-width="1.5" stroke-linecap="round" stroke-linejoin="round"/>
<path d="M22.5775 6.51545C22.5775 6.51545 24.5972 5.33315 24.1216 2H26.0436C26.0436 2 26.7082 5.26635 23.7959 8.08516C23.7959 8.08516 28.6171 8.98024 29.7768 8.05845C31.1711 6.9563 29.6205 5.04592 28.2979 5.92096C26.1739 7.32368 30.5 10.9107 30.5 10.9107" stroke="black" stroke-width="1.5" stroke-linecap="round" stroke-linejoin="round"/>
<path d="M14.7462 21.4512C14.5898 22.4531 14.1338 23.415 13.378 24.1898C13.2673 24.3034 13.15 24.4103 13.0327 24.5105" stroke="black" stroke-width="1.5" stroke-linecap="round" stroke-linejoin="round"/>
<path d="M14.3162 18.4653C14.5117 18.8795 14.6485 19.3136 14.7267 19.7545" stroke="black" stroke-width="1.5" stroke-linecap="round" stroke-linejoin="round"/>
</svg>
